<?xml version="1.0" encoding="utf-8"?>
<!-- Generator: Adobe Illustrator 26.0.1, SVG Export Plug-In . SVG Version: 6.00 Build 0)  -->
<svg version="1.1" id="Layer_1" xmlns="http://www.w3.org/2000/svg" xmlns:xlink="http://www.w3.org/1999/xlink" x="0px" y="0px"
	 viewBox="0 0 960 560" style="enable-background:new 0 0 960 560;" xml:space="preserve">
<style type="text/css">
	.st0{fill:none;}
	.st1{fill:#C6DD7F;}
	.st2{fill:#E9DDB7;}
	.st3{fill:#A6D0E4;}
	.Alyssa_GS{fill:#A6D0E4;}
	.st4{fill:url(#SVGID_1_);}
	.st5{fill:url(#SVGID_00000114044446432633495270000017783216955271085246_);}
	.st6{fill:url(#SVGID_00000027598938445942986390000000318295957089082805_);}
	.st7{fill:url(#SVGID_00000114765451991136610400000014526502509385949076_);}
	.st8{fill:url(#SVGID_00000062162546497562349060000002143872999398936745_);}
	.st9{fill:url(#SVGID_00000176732251914821934270000009814930378346013073_);}
	.st10{fill:url(#SVGID_00000033336019482426536820000006615569672056279969_);}
	.st11{fill:url(#SVGID_00000134952851623614358440000005807709064458212484_);}
	.st12{fill:url(#SVGID_00000039840351530863802800000005595116835800567738_);}
	.st13{fill:url(#SVGID_00000173842937136603536700000002019142948834783637_);}
	.st14{fill:url(#SVGID_00000077323999416751205440000018061168452017611144_);}
	.st15{fill:url(#SVGID_00000029743986137615460640000018191765333869639556_);}
	.st16{fill:url(#SVGID_00000091723623852857925260000001157368284253503669_);}
	.st17{enable-background:new    ;}
	.st18{fill:#39603D;}
</style>
<pattern  width="144.13" height="138.36" patternUnits="userSpaceOnUse" id="Alyssa" viewBox="99.96 -216.83 144.13 138.36" style="overflow:visible;">
	<g>
		<rect x="99.96" y="-216.83" class="st0" width="144.13" height="138.36"/>
		<g>
			<path class="st1" d="M311.04-58.31c-11.76-1.38-19.37,0.35-22.65,3.11c-3.02,2.54-4.96,5.41-2.25,11.93
				c2.94,7.09,1.53,14.73-5.54,15.91c-6.22,1.04-10.89-4.84-11.24-12.28c-0.24-5.18-1.9-8.3-5.53-7.61
				c-3.63,0.69-4.63,5.9-3.63,11.76c1.38,8.13,5.54,11.76,6.23,20.23c0.49,6.05-2.94,13.66-12.45,15.04
				c-9.3,1.35-15.91-4.32-16.6-10.55c-0.73-6.59,3.63-10.89,3.11-17.64c-0.52-6.75-4.01-10.17-5.88-17.29
				c-2.77-10.55,1.21-19.02,7.78-22.65c14.75-8.15,22.83,3.64,35.97,1.56c10.9-1.73,23.35-18.16,33.03-19.54
				c8.23-1.17,13.83,4.67,15.04,14.01C327.64-62.98,321.69-57.05,311.04-58.31z M268.84-57.79c0-2.29-1.86-4.15-4.15-4.15
				c-2.29,0-4.15,1.86-4.15,4.15s1.86,4.15,4.15,4.15C266.98-53.64,268.84-55.5,268.84-57.79z M318.3-73.18
				c0-0.96-0.78-1.73-1.73-1.73s-1.73,0.77-1.73,1.73s0.77,1.73,1.73,1.73S318.3-72.22,318.3-73.18z"/>
		</g>
		<g>
			<path class="st2" d="M148.8-77.49c0,7.17,4.59,13.81-1,16.33c-8.5,3.83-28-14.33-28-36.17c0-12,8.67-19,17.83-19
				c12.33,0,18,8.17,18,17.5C155.63-89.5,148.8-85.69,148.8-77.49z M143.39-82.86c0-1.15-0.93-2.08-2.07-2.08
				c-1.15,0-2.08,0.93-2.08,2.08c0,1.15,0.93,2.08,2.08,2.08C142.46-80.79,143.39-81.72,143.39-82.86z"/>
			<path class="st3" d="M223.49-54c-7.87,2.74-19.44-15.3-17.67-27.02c1.24-8.23,7.12-13.19,13.09-14.22
				c7.53-1.3,12.9,2.6,13.3,7.24c0.55,6.31-3.63,7.52-4.22,14.96C227.43-65.9,231.68-56.85,223.49-54z M219.71-81.51
				c0-1.43-1.16-2.59-2.59-2.59c-1.43,0-2.59,1.16-2.59,2.59c0,1.43,1.16,2.59,2.59,2.59C218.54-78.91,219.71-80.08,219.71-81.51z"
				/>
			<path class="st2" d="M119.35-76.47c0,1.43-1.16,2.59-2.59,2.59c-1.43,0-2.59-1.16-2.59-2.59s1.16-2.59,2.59-2.59
				C118.19-79.06,119.35-77.9,119.35-76.47z"/>
			<path class="st3" d="M184.57-84.19c0.74,8.1,12.67,7.02,17.9,14.21c10.52,14.47-1.22,46.37-21.63,46.37
				c-11.74,0-24.22-9.72-24.22-29.22c0-15.83,10.17-21.5,8.25-42.17c-1.01-10.83-12.5-20.34-12.5-34.75
				c0-5.92,3.59-13.45,11.55-13.45c7.05,0,10.82,5.95,10.82,12.9c0,6.8-5.38,15.74,1.38,19.05c5.24,2.57,13.21-4.77,19.5-6.75
				c5.19-1.64,12.39,0.22,14.75,8.5c2.53,8.88-3.25,14.75-11.59,16.69C192.47-91.32,183.98-90.63,184.57-84.19z M168.59-114.75
				c0-1.82-1.47-3.29-3.29-3.29c-1.81,0-3.29,1.47-3.29,3.29c0,1.81,1.47,3.29,3.29,3.29C167.12-111.46,168.59-112.93,168.59-114.75
				z M194.57-105.05c1.29,0,2.33-1.04,2.33-2.33c0-1.29-1.04-2.33-2.33-2.33c-1.29,0-2.33,1.04-2.33,2.33
				C192.24-106.1,193.29-105.05,194.57-105.05z M174.59-45.38c0-1.82-1.47-3.29-3.29-3.29c-1.81,0-3.29,1.47-3.29,3.29
				c0,1.81,1.47,3.29,3.29,3.29C173.12-42.1,174.59-43.57,174.59-45.38z"/>
			<path class="st1" d="M166.91-58.31c-11.76-1.38-19.37,0.35-22.65,3.11c-3.02,2.54-4.96,5.41-2.25,11.93
				c2.94,7.09,1.53,14.73-5.54,15.91c-6.22,1.04-10.89-4.84-11.24-12.28c-0.24-5.18-1.9-8.3-5.53-7.61
				c-3.63,0.69-4.63,5.9-3.63,11.76c1.38,8.13,5.54,11.76,6.23,20.23c0.49,6.05-2.94,13.66-12.45,15.04
				c-9.3,1.35-15.91-4.32-16.6-10.55c-0.73-6.59,3.63-10.89,3.11-17.64c-0.52-6.75-4.01-10.17-5.88-17.29
				c-2.77-10.55,1.21-19.02,7.78-22.65c14.75-8.15,22.83,3.64,35.97,1.56c10.9-1.73,23.35-18.16,33.03-19.54
				c8.23-1.17,13.83,4.67,15.04,14.01C183.51-62.98,177.56-57.05,166.91-58.31z M124.71-57.79c0-2.29-1.86-4.15-4.15-4.15
				c-2.29,0-4.15,1.86-4.15,4.15s1.86,4.15,4.15,4.15C122.85-53.64,124.71-55.5,124.71-57.79z M174.17-73.18
				c0-0.96-0.78-1.73-1.73-1.73c-0.96,0-1.73,0.77-1.73,1.73s0.77,1.73,1.73,1.73C173.4-71.45,174.17-72.22,174.17-73.18z"/>
		</g>
		<g>
			<path class="st3" d="M290.28-104.84c0,6.23-4.15,10.72-8.65,11.59c-4.5,0.87-8.32-1.28-12.97,1.21
				c-4.84,2.59-7.09,11.07-16.78,11.07c-7.96,0-15.22-7.96-15.22-18.85c0-20.23,13.14-29.23,25.59-29.23
				C278.87-129.05,290.28-116.43,290.28-104.84z M270.57-119.19c0-2.1-1.7-3.8-3.8-3.8c-2.1,0-3.8,1.7-3.8,3.8
				c0,2.1,1.7,3.8,3.8,3.8C268.87-115.39,270.57-117.09,270.57-119.19z"/>
			<path class="st1" d="M311.04-196.67c-11.76-1.38-19.37,0.35-22.65,3.11c-3.02,2.54-4.96,5.41-2.25,11.93
				c2.94,7.09,1.53,14.73-5.54,15.91c-6.22,1.04-10.89-4.84-11.24-12.28c-0.24-5.18-1.9-8.3-5.53-7.61
				c-3.63,0.69-4.63,5.9-3.63,11.76c1.38,8.13,5.54,11.76,6.23,20.23c0.49,6.05-2.94,13.66-12.45,15.04
				c-9.3,1.35-15.91-4.32-16.6-10.55c-0.73-6.59,3.63-10.89,3.11-17.64c-0.52-6.75-4.01-10.17-5.88-17.29
				c-2.77-10.55,1.21-19.02,7.78-22.65c14.75-8.15,22.83,3.64,35.97,1.56c10.9-1.73,23.35-18.16,33.03-19.54
				c8.23-1.17,13.83,4.67,15.04,14.01C327.64-201.34,321.69-195.42,311.04-196.67z M268.84-196.15c0-2.29-1.86-4.15-4.15-4.15
				c-2.29,0-4.15,1.86-4.15,4.15c0,2.29,1.86,4.15,4.15,4.15C266.98-192,268.84-193.86,268.84-196.15z M318.3-211.54
				c0-0.96-0.78-1.73-1.73-1.73s-1.73,0.77-1.73,1.73c0,0.96,0.77,1.73,1.73,1.73S318.3-210.59,318.3-211.54z"/>
		</g>
		<g>
			<path class="st3" d="M131.8-133.19c-13.96,1.99-21.17-13.33-17.67-20.33c3.67-7.33,12.12-4.17,19.5-4.17
				c9.67,0,16.37-7.57,20.42-2.25C158.3-154.36,149.04-135.65,131.8-133.19z M132.32-150.67c0-1.24-1.01-2.25-2.25-2.25
				c-1.24,0-2.25,1.01-2.25,2.25c0,1.24,1.01,2.25,2.25,2.25C131.31-148.42,132.32-149.43,132.32-150.67z"/>
			<path class="st2" d="M148.8-215.86c0,7.17,4.59,13.81-1,16.33c-8.5,3.83-28-14.33-28-36.17c0-12,8.67-19,17.83-19
				c12.33,0,18,8.17,18,17.5C155.63-227.86,148.8-224.05,148.8-215.86z M143.39-221.23c0-1.15-0.93-2.08-2.07-2.08
				c-1.15,0-2.08,0.93-2.08,2.08c0,1.15,0.93,2.08,2.08,2.08C142.46-219.15,143.39-220.08,143.39-221.23z"/>
			<path class="st3" d="M146.15-104.84c0,6.23-4.15,10.72-8.65,11.59c-4.5,0.87-8.32-1.28-12.97,1.21
				c-4.84,2.59-7.09,11.07-16.77,11.07c-7.96,0-15.22-7.96-15.22-18.85c0-20.23,13.14-29.23,25.59-29.23
				C134.74-129.05,146.15-116.43,146.15-104.84z M126.44-119.19c0-2.1-1.7-3.8-3.8-3.8c-2.1,0-3.8,1.7-3.8,3.8
				c0,2.1,1.7,3.8,3.8,3.8C124.74-115.39,126.44-117.09,126.44-119.19z"/>
			<path class="st1" d="M145.46-128.53c0,1.34-1.08,2.42-2.42,2.42c-1.34,0-2.42-1.08-2.42-2.42c0-1.34,1.08-2.42,2.42-2.42
				C144.38-130.95,145.46-129.87,145.46-128.53z"/>
			<path class="st3" d="M229.16-147.04c-3.19,4.68,1.04,10.72-1.38,15.22c-2.42,4.5-6.74,5.02-9.86,2.6
				c-3.63-2.83-3.41-6.64-8.3-8.82c-5.53-2.46-17.98,2.25-19.71-7.26c-0.88-4.81,2.38-8.57,7.26-9.68
				c6.05-1.38,9.35-0.18,15.39-3.11c6.05-2.94,11.24-8.99,22.14-12.11c10.41-2.97,16.07,1.56,16.6,5.88
				C252.34-155.86,234.17-154.38,229.16-147.04z M226.91-154.47c0-1.24-1.01-2.25-2.25-2.25c-1.24,0-2.25,1.01-2.25,2.25
				c0,1.24,1.01,2.25,2.25,2.25C225.91-152.23,226.91-153.23,226.91-154.47z"/>
			<path class="st2" d="M256.13-107.86c0,17.17-14.5,25.5-27,22.83c-10.26-2.19-12.83-17.33-16.67-26.17
				c-3.71-8.56-8.83-22.5-20.17-22.5c-11.2,0-12.83,14.5-23.67,14.5c-11,0-24.5-15.67-24.5-39.67c0-14.67,9.8-31.46,20.83-30.67
				c11.67,0.83,4.5,19.67,15.33,19.67c9.5,0,7.86-16.26,9.17-23.33c1.67-9,6.83-14.17,18.5-13.17c14.44,1.24,22.33,13.5,18.87,23.34
				c-4.03,11.45-23.87,17.32-21.54,30.49c1.35,7.59,13,12,26,16.17C245.82-131.7,256.13-125.02,256.13-107.86z M211.18-183.7
				c0,1.82,1.47,3.29,3.29,3.29c1.81,0,3.29-1.47,3.29-3.29s-1.47-3.29-3.29-3.29C212.65-186.99,211.18-185.52,211.18-183.7z
				 M164.48-158.8c0-0.96-0.77-1.73-1.73-1.73c-0.96,0-1.73,0.78-1.73,1.73c0,0.96,0.78,1.73,1.73,1.73
				C163.71-157.07,164.48-157.84,164.48-158.8z M181.95-148.08c0-2.1-1.7-3.8-3.8-3.8c-2.1,0-3.8,1.7-3.8,3.8
				c0,2.1,1.71,3.8,3.8,3.8C180.25-144.27,181.95-145.97,181.95-148.08z M201.84-163.64c0-0.86-0.7-1.56-1.56-1.56
				c-0.86,0-1.56,0.7-1.56,1.56c0,0.86,0.7,1.56,1.56,1.56C201.14-162.08,201.84-162.78,201.84-163.64z M231.48-108.94
				c0-1.75-1.42-3.17-3.17-3.17c-1.75,0-3.17,1.42-3.17,3.17c0,1.75,1.42,3.17,3.17,3.17C230.06-105.77,231.48-107.19,231.48-108.94
				z"/>
			<path class="st3" d="M223.49-192.36c-7.87,2.74-19.44-15.3-17.67-27.02c1.24-8.23,7.12-13.19,13.09-14.22
				c7.53-1.3,12.9,2.6,13.3,7.24c0.55,6.31-3.63,7.52-4.22,14.96C227.43-204.26,231.68-195.21,223.49-192.36z M219.71-219.87
				c0-1.43-1.16-2.59-2.59-2.59c-1.43,0-2.59,1.16-2.59,2.59c0,1.43,1.16,2.59,2.59,2.59C218.54-217.28,219.71-218.44,219.71-219.87
				z"/>
			<path class="st2" d="M119.35-214.83c0,1.43-1.16,2.59-2.59,2.59c-1.43,0-2.59-1.16-2.59-2.59c0-1.43,1.16-2.59,2.59-2.59
				C118.19-217.42,119.35-216.26,119.35-214.83z"/>
			<path class="st2" d="M253.35-128.09c0-8.41-5.08-15.23-11.34-15.23s-11.34,6.82-11.34,15.23c0,8.41,5.08,12.44,11.34,12.44
				S253.35-119.68,253.35-128.09z"/>
			<path class="st3" d="M184.57-222.55c0.74,8.1,12.67,7.02,17.9,14.21c10.52,14.47-1.22,46.37-21.63,46.37
				c-11.74,0-24.22-9.72-24.22-29.22c0-15.83,10.17-21.5,8.25-42.17c-1.01-10.83-12.5-20.34-12.5-34.75
				c0-5.92,3.59-13.45,11.55-13.45c7.05,0,10.82,5.95,10.82,12.9c0,6.8-5.38,15.74,1.38,19.05c5.24,2.57,13.21-4.77,19.5-6.75
				c5.19-1.64,12.39,0.22,14.75,8.5c2.53,8.88-3.25,14.75-11.59,16.69C192.47-229.69,183.98-228.99,184.57-222.55z M168.59-253.11
				c0-1.82-1.47-3.29-3.29-3.29c-1.81,0-3.29,1.47-3.29,3.29c0,1.81,1.47,3.29,3.29,3.29C167.12-249.82,168.59-251.3,168.59-253.11z
				 M194.57-243.41c1.29,0,2.33-1.04,2.33-2.33c0-1.29-1.04-2.33-2.33-2.33c-1.29,0-2.33,1.04-2.33,2.33
				C192.24-244.46,193.29-243.41,194.57-243.41z M174.59-183.74c0-1.82-1.47-3.29-3.29-3.29c-1.81,0-3.29,1.47-3.29,3.29
				c0,1.81,1.47,3.29,3.29,3.29C173.12-180.46,174.59-181.93,174.59-183.74z"/>
			<path class="st1" d="M166.91-196.67c-11.76-1.38-19.37,0.35-22.65,3.11c-3.02,2.54-4.96,5.41-2.25,11.93
				c2.94,7.09,1.53,14.73-5.54,15.91c-6.22,1.04-10.89-4.84-11.24-12.28c-0.24-5.18-1.9-8.3-5.53-7.61
				c-3.63,0.69-4.63,5.9-3.63,11.76c1.38,8.13,5.54,11.76,6.23,20.23c0.49,6.05-2.94,13.66-12.45,15.04
				c-9.3,1.35-15.91-4.32-16.6-10.55c-0.73-6.59,3.63-10.89,3.11-17.64c-0.52-6.75-4.01-10.17-5.88-17.29
				c-2.77-10.55,1.21-19.02,7.78-22.65c14.75-8.15,22.83,3.64,35.97,1.56c10.9-1.73,23.35-18.16,33.03-19.54
				c8.23-1.17,13.83,4.67,15.04,14.01C183.51-201.34,177.56-195.42,166.91-196.67z M124.71-196.15c0-2.29-1.86-4.15-4.15-4.15
				c-2.29,0-4.15,1.86-4.15,4.15c0,2.29,1.86,4.15,4.15,4.15C122.85-192,124.71-193.86,124.71-196.15z M174.17-211.54
				c0-0.96-0.78-1.73-1.73-1.73c-0.96,0-1.73,0.77-1.73,1.73c0,0.96,0.77,1.73,1.73,1.73C173.4-209.81,174.17-210.59,174.17-211.54z
				"/>
			<path class="st1" d="M230.2-174.36c0,0.76-0.62,1.38-1.38,1.38c-0.76,0-1.38-0.62-1.38-1.38c0-0.76,0.62-1.38,1.38-1.38
				C229.58-175.74,230.2-175.12,230.2-174.36z"/>
			<path class="st2" d="M235.73-212.75c0,1.24-1.01,2.25-2.25,2.25s-2.25-1.01-2.25-2.25c0-1.24,1.01-2.25,2.25-2.25
				S235.73-213.99,235.73-212.75z"/>
			<path class="st3" d="M152.21-189.58c0,0.67-0.54,1.21-1.21,1.21s-1.21-0.54-1.21-1.21s0.54-1.21,1.21-1.21
				S152.21-190.25,152.21-189.58z"/>
			<path class="st3" d="M148.57-121.1c0,0.76-0.62,1.38-1.38,1.38s-1.38-0.62-1.38-1.38c0-0.76,0.62-1.38,1.38-1.38
				S148.57-121.86,148.57-121.1z"/>
			<path class="st2" d="M233.14-143.06c0,0.67-0.54,1.21-1.21,1.21c-0.67,0-1.21-0.54-1.21-1.21c0-0.67,0.54-1.21,1.21-1.21
				C232.6-144.27,233.14-143.73,233.14-143.06z"/>
			<path class="st1" d="M195.85-125.13c0,1.88-1.53,3.41-3.41,3.41c-1.88,0-3.41-1.53-3.41-3.41c0-1.88,1.53-3.41,3.41-3.41
				C194.32-128.54,195.85-127.02,195.85-125.13z"/>
			<path class="st2" d="M200.83-85.28c0,1.16-0.94,2.1-2.1,2.1s-2.1-0.94-2.1-2.1s0.94-2.1,2.1-2.1S200.83-86.44,200.83-85.28z"/>
			<path class="st2" d="M162.03-91.58c0,0.87-0.7,1.57-1.57,1.57c-0.87,0-1.57-0.7-1.57-1.57c0-0.87,0.71-1.57,1.57-1.57
				C161.33-93.15,162.03-92.44,162.03-91.58z"/>
			<circle class="st1" cx="233.08" cy="-205.62" r="2.62"/>
			<circle class="st3" cx="223.12" cy="-170.75" r="2.36"/>
			<path class="st2" d="M127.69-164.2c0,1.45-1.17,2.62-2.62,2.62c-1.45,0-2.62-1.17-2.62-2.62c0-1.45,1.17-2.62,2.62-2.62
				C126.51-166.82,127.69-165.65,127.69-164.2z"/>
			<path class="st3" d="M122.7-171.28c0,0.72-0.59,1.31-1.31,1.31c-0.72,0-1.31-0.59-1.31-1.31s0.59-1.31,1.31-1.31
				C122.12-172.59,122.7-172,122.7-171.28z"/>
			<path class="st2" d="M186.94-119.37c0,0.87-0.71,1.57-1.57,1.57c-0.87,0-1.57-0.7-1.57-1.57c0-0.87,0.7-1.57,1.57-1.57
				C186.23-120.94,186.94-120.24,186.94-119.37z"/>
		</g>
		<g>
			<path class="st3" d="M85.03-147.04c-3.19,4.68,1.04,10.72-1.38,15.22c-2.42,4.5-6.74,5.02-9.86,2.6
				c-3.63-2.83-3.41-6.64-8.3-8.82c-5.53-2.46-17.98,2.25-19.71-7.26c-0.88-4.81,2.38-8.57,7.26-9.68
				c6.05-1.38,9.35-0.18,15.39-3.11c6.05-2.94,11.24-8.99,22.14-12.11c10.41-2.97,16.07,1.56,16.6,5.88
				C108.21-155.86,90.04-154.38,85.03-147.04z M82.79-154.47c0-1.24-1.01-2.25-2.25-2.25c-1.24,0-2.25,1.01-2.25,2.25
				c0,1.24,1.01,2.25,2.25,2.25C81.78-152.23,82.79-153.23,82.79-154.47z"/>
			<path class="st2" d="M112-107.86c0,17.17-14.5,25.5-27,22.83c-10.26-2.19-12.83-17.33-16.67-26.17
				c-3.71-8.56-8.83-22.5-20.17-22.5c-11.2,0-12.83,14.5-23.67,14.5c-11,0-24.5-15.67-24.5-39.67c0-14.67,9.8-31.46,20.83-30.67
				c11.67,0.83,4.5,19.67,15.33,19.67c9.5,0,7.86-16.26,9.17-23.33c1.67-9,6.83-14.17,18.5-13.17c14.44,1.24,22.33,13.5,18.87,23.34
				c-4.03,11.45-23.87,17.32-21.54,30.49c1.35,7.59,13,12,26,16.17C101.7-131.7,112-125.02,112-107.86z M67.05-183.7
				c0,1.82,1.47,3.29,3.29,3.29c1.81,0,3.29-1.47,3.29-3.29s-1.47-3.29-3.29-3.29C68.52-186.99,67.05-185.52,67.05-183.7z
				 M20.36-158.8c0-0.96-0.77-1.73-1.73-1.73c-0.96,0-1.73,0.78-1.73,1.73c0,0.96,0.78,1.73,1.73,1.73
				C19.58-157.07,20.36-157.84,20.36-158.8z M37.82-148.08c0-2.1-1.7-3.8-3.8-3.8c-2.1,0-3.8,1.7-3.8,3.8c0,2.1,1.71,3.8,3.8,3.8
				C36.12-144.27,37.82-145.97,37.82-148.08z M57.71-163.64c0-0.86-0.7-1.56-1.56-1.56c-0.86,0-1.56,0.7-1.56,1.56
				c0,0.86,0.7,1.56,1.56,1.56C57.01-162.08,57.71-162.78,57.71-163.64z M87.35-108.94c0-1.75-1.42-3.17-3.17-3.17
				c-1.75,0-3.17,1.42-3.17,3.17c0,1.75,1.42,3.17,3.17,3.17C85.93-105.77,87.35-107.19,87.35-108.94z"/>
			<path class="st2" d="M109.22-128.09c0-8.41-5.08-15.23-11.34-15.23s-11.34,6.82-11.34,15.23c0,8.41,5.08,12.44,11.34,12.44
				S109.22-119.68,109.22-128.09z"/>
		</g>
	</g>
</pattern>
<g>
	<g>
		<g>
			<path class="Alyssa_GS" d="M262.94,236.12h-10.92l-9.9-31.36h-29.39l-10.03,31.36h-10.79l29.26-89.57h12.5L262.94,236.12z
				 M239.13,195.69l-11.74-37.07l-11.68,37.07H239.13z"/>
			<path class="Alyssa_GS" d="M409.32,236.12h-48.75v-89.57h10.41v80.49h38.34V236.12z"/>
			<path class="Alyssa_GS" d="M470.44,236.12h-9.9v-57.57h-19.49v-8.57h29.39V236.12z M465.62,144.97c1.86,0,3.45,0.67,4.76,2
				c1.31,1.33,1.97,2.93,1.97,4.79c0,1.95-0.65,3.58-1.94,4.89c-1.29,1.31-2.89,1.97-4.79,1.97c-1.74,0-3.27-0.69-4.6-2.06
				c-1.33-1.37-2-2.97-2-4.79c0-1.82,0.67-3.41,2-4.76C462.35,145.65,463.88,144.97,465.62,144.97z"/>
			<path class="Alyssa_GS" d="M565.59,233.14c-6.64,3.05-13.18,4.57-19.61,4.57c-11.81,0-17.71-6.24-17.71-18.73v-40.43h-12.7v-8.57
				h12.7v-18.09h9.65v18.09h22.47v8.57h-22.47v37.83c0,4.02,0.89,7.14,2.67,9.36c1.78,2.22,4.19,3.33,7.24,3.33
				c5.42,0,10.77-1.21,16.06-3.62L565.59,233.14z"/>
			<path class="Alyssa_GS" d="M643.61,233.14c-6.64,3.05-13.18,4.57-19.61,4.57c-11.81,0-17.71-6.24-17.71-18.73v-40.43h-12.7v-8.57
				h12.7v-18.09h9.65v18.09h22.47v8.57h-22.47v37.83c0,4.02,0.89,7.14,2.67,9.36c1.78,2.22,4.19,3.33,7.24,3.33
				c5.42,0,10.77-1.21,16.06-3.62L643.61,233.14z"/>
			<path class="Alyssa_GS" d="M716.16,236.12h-27.04v-81h-17.27v-8.57h27.17v81h17.14V236.12z"/>
			<path class="Alyssa_GS" d="M800.97,203.37h-45.39c0,7.49,2.17,13.67,6.51,18.54c4.34,4.87,9.66,7.3,15.96,7.3
				c6.01,0,12.21-1.08,18.6-3.24l1.71,7.93c-5.84,2.62-12.65,3.94-20.44,3.94c-9.82,0-17.73-3.15-23.74-9.46
				c-6.01-6.3-9.01-14.81-9.01-25.52c0-10.49,2.7-18.86,8.09-25.11c5.39-6.24,12.37-9.36,20.92-9.36c7.62,0,13.99,2.9,19.11,8.7
				c5.12,5.8,7.68,13.52,7.68,23.17V203.37z M790.17,195.31c0-5.16-1.61-9.51-4.82-13.04c-3.22-3.53-6.81-5.3-10.79-5.3
				c-5.12,0-9.36,1.69-12.73,5.08c-3.36,3.39-5.24,7.81-5.62,13.27H790.17z"/>
		</g>
		<g>
			<path class="Alyssa_GS" d="M104.99,400.29c-11.47,0-20.43-6.88-26.88-20.65c-4.44-9.91-6.67-22.63-6.67-38.16
				c0-2.98,0.07-6.1,0.22-9.38c1.32-22.31,6.03-43.46,14.14-63.43c6.3-15.28,14.14-27.15,23.51-35.6c5.03-4.35,10.42-7.4,16.19-9.16
				c2.88-0.93,5.64-1.39,8.28-1.39c11.33,0,17.75,6.74,19.26,20.21c0.1,1.03,0.15,2.05,0.15,3.08c0,4.15-0.56,7.72-1.68,10.69
				l1.76-1.03c11.08-6.54,21.9-9.81,32.45-9.81c12.55,0,25.15,4.81,37.79,14.43c4.15,3.08,8.57,6.81,13.26,11.21
				c1.86,1.76,3.27,2.96,4.25,3.59c1.12,0.88,1.68,1.56,1.68,2.05c0,0.68-1.95,2.1-5.86,4.25c-10.3,5.81-20.56,9.99-30.76,12.52
				c-6.64,1.66-12.96,2.49-18.97,2.49c-15.28,0-27.05-5.13-35.3-15.38c-2.88-3.66-5.25-7.84-7.1-12.52
				c-0.34,0.15-0.71,0.22-1.1,0.22c-0.54,0-1.1-0.15-1.68-0.44c-1.22-0.63-1.83-1.64-1.83-3c0-0.54,0.12-1.07,0.37-1.61
				c3.52-6.88,5.27-12.01,5.27-15.38c0-1.03-0.17-1.83-0.51-2.42c-0.73-1.27-1.86-1.9-3.37-1.9c-0.68,0-1.44,0.12-2.27,0.37
				c-5.27,1.66-9.89,4.76-13.84,9.3c-5.27,6.01-10.01,14.26-14.21,24.76c-3.12,8.11-5.67,16.8-7.62,26.07
				c-3.37,15.77-5.05,28.64-5.05,38.6c0,10.35,1.51,20,4.54,28.93c1.46,4.2,3.2,7.67,5.2,10.4c2.59,3.56,5.37,5.35,8.35,5.35
				c3.56,0,7.13-2.52,10.69-7.54c3.91-5.71,7.3-12.92,10.18-21.61c2.83-8.98,5.61-20.65,8.35-35.01c-4.25,1.22-7.91,1.83-10.99,1.83
				c-2.39,0.15-3.66,0.39-3.81,0.73c-0.29,1.95-1.12,3.46-2.49,4.5c-1.37,1.05-2.88,1.57-4.54,1.57c-2.1,0-3.83-0.85-5.2-2.56
				c-1.03-1.27-1.54-2.71-1.54-4.32l0.07-0.81c0.54-3.66,1.98-6.2,4.32-7.62c1.66-1.03,3.56-1.75,5.71-2.16
				c2.15-0.41,4.42-0.74,6.81-0.99c4.2-0.54,6.71-1.37,7.54-2.49c1.95-1.76,4.05-2.64,6.3-2.64c0.98,0,1.9,0.17,2.78,0.51
				c2.44,0.93,3.66,2.69,3.66,5.27v0.73c-0.29,1.76-0.95,10.28-1.98,25.56c-0.34,7.47-0.61,14.94-0.81,22.41
				c0.05,3.81,0.27,7.1,0.66,9.89c1.22,6.93,3.3,10.74,6.23,11.43c0.59,0.15,1.2,0.22,1.83,0.22c2.54,0,5.3-1.22,8.28-3.66
				c5.13-4.35,9.55-9.13,13.26-14.36c8.54-11.47,15.89-23.85,22.05-37.13c-5.62-0.15-9.94-1.07-12.96-2.78
				c-4.15-2.34-6.23-5.44-6.23-9.3c0-4,2.03-8.1,6.08-12.3c2.54-2.64,6.15-5.13,10.84-7.47c2.93-1.42,5.61-2.12,8.06-2.12
				c2.34,0,4.32,0.83,5.93,2.49c1.71,2.05,2.56,4.93,2.56,8.64c0,2.49-0.37,5.01-1.1,7.54c2.93-0.73,5.49-1.44,7.69-2.12
				c2.2-0.68,4.88-1.49,8.06-2.42c7.76-2.49,14.06-3.74,18.9-3.74c1.76,0,3.44,0.15,5.05,0.44c5.03,0.88,8.03,3.71,9.01,8.5
				l0.07,1.25c0,1.42-0.45,2.8-1.36,4.14s-2.31,2.23-4.21,2.67c-0.49,0.1-0.95,0.15-1.39,0.15c-0.73,0-1.46-0.12-2.2-0.37
				c-0.44,1.17-1.46,3.44-3.08,6.81c-12.35,25.88-18.53,43.63-18.53,53.25c0,1.51,0.17,2.78,0.51,3.81
				c0.88,2.59,2.46,3.88,4.76,3.88c1.56,0,3.34-0.49,5.35-1.46c3.96-2.05,7.86-5.23,11.72-9.52c5.32-6.05,10.21-12.82,14.65-20.29
				c5.96-10.21,10.01-18.24,12.16-24.1c0.59-1.51,1.64-2.27,3.15-2.27c0.39,0,0.81,0.07,1.25,0.22c1.51,0.59,2.27,1.64,2.27,3.15
				c0,0.39-0.07,0.81-0.22,1.25c-2.25,6.3-6.47,14.72-12.67,25.27c-4.64,7.81-9.79,14.94-15.45,21.39
				c-4.98,5.57-9.91,9.42-14.79,11.57c-2.49,1.07-4.86,1.61-7.1,1.61c-4.88,0-8.79-2.44-11.72-7.32c-3.52-5.91-5.27-15.6-5.27-29.08
				c0-11.03,1.32-22.8,3.96-35.3c-6.84,1.9-12.16,3.08-15.97,3.52c-1.66,3.76-3.52,7.64-5.57,11.65
				c-11.47,22.22-22.85,37.25-34.13,45.12c-4.59,3.27-8.76,4.91-12.52,4.91c-3.66,0-6.74-1.59-9.23-4.76
				c-3.66-4.54-5.49-12.13-5.49-22.78l0.07-5.35c-4.49,15.19-11.04,26.54-19.63,34.06C118.93,397.43,112.07,400.29,104.99,400.29z
				 M186.95,292.7c9.81,0,20.78-2.34,32.89-7.03c-4.15-2.68-6.76-5.44-7.84-8.28c-0.63-1.46-0.95-2.56-0.95-3.3
				c0-1.12,0.59-1.68,1.76-1.68c0.88,0,1.44,0.49,1.68,1.46c0.54,3.12,3.03,6.15,7.47,9.08c0.54,0.34,0.81,0.83,0.81,1.46
				c5.32-2.29,10.21-4.83,14.65-7.62c-5.47-5.47-10.65-10.01-15.53-13.62c0,1.17-0.56,1.76-1.68,1.76c-6.01,0-10.01,1.07-12.01,3.22
				c6.3,0.29,13.06,1.76,20.29,4.39c0.73,0.34,1.1,0.85,1.1,1.54c0,1.12-0.56,1.71-1.68,1.76l-0.66-0.07
				c-6.64-2.44-12.87-3.81-18.68-4.1c-2.74-0.15-5.45-0.22-8.13-0.22c-3.03,0-6.05,0.11-9.08,0.33c-3.03,0.22-6.15,0.33-9.38,0.33
				c-3.17,0-7.21-0.18-12.12-0.55c-4.91-0.37-11.12-2.21-18.64-5.53c-0.68-0.39-1.03-0.93-1.03-1.61c0-0.24,0.05-0.46,0.15-0.66
				c0.39-0.68,0.9-1.03,1.54-1.03c0.24,0,0.49,0.05,0.73,0.15c7.18,3.17,13.92,4.98,20.21,5.42c3.12,0.2,6.23,0.29,9.3,0.29
				s6.15-0.1,9.23-0.29c3.08-0.19,6.23-0.29,9.45-0.29l4.83,0.07c-0.2-0.34-0.29-0.68-0.29-1.03c0.05-1.37,1.71-2.73,4.98-4.1
				c2.1-0.93,5.2-1.42,9.3-1.46c-11.72-8.25-23.1-12.38-34.13-12.38c-11.77,0-23.85,4.35-36.25,13.04c-0.59,1.12-1.22,2.22-1.9,3.3
				C153.92,283.62,167.13,292.7,186.95,292.7z M162.86,265.74c-0.44,0-0.85-0.15-1.25-0.44c-0.39-0.29-0.59-0.71-0.59-1.25
				c0-0.39,0.1-0.76,0.29-1.1c5.37-7.18,11.89-11.62,19.56-13.33l0.44-0.07c1.12,0,1.68,0.59,1.68,1.76c0,0.83-0.46,1.39-1.39,1.68
				c-6.93,1.56-12.77,5.59-17.5,12.08C163.81,265.43,163.39,265.65,162.86,265.74z M190.76,289.84l-0.44-0.07
				c-3.52-1.03-7.18-2.79-10.99-5.31s-6.47-4.99-7.98-7.43c-0.15-0.29-0.22-0.56-0.22-0.81c0-1.17,0.56-1.76,1.68-1.76
				c0.68,0,1.2,0.29,1.54,0.88c1.17,1.9,3.48,4,6.92,6.3c3.44,2.3,6.75,3.88,9.92,4.76c0.88,0.29,1.32,0.85,1.32,1.68
				C192.37,289.25,191.79,289.84,190.76,289.84z M182.56,267.36c-0.44,0-0.85-0.15-1.25-0.44c-0.39-0.29-0.59-0.71-0.59-1.25
				c0-0.49,0.17-0.9,0.51-1.25c2.15-3.08,4.71-5.65,7.69-7.73c2.98-2.07,6.93-3.16,11.87-3.26c0.49,0,0.89,0.17,1.21,0.51
				c0.32,0.34,0.48,0.76,0.48,1.25c0,0.49-0.16,0.89-0.48,1.21c-0.32,0.32-0.72,0.48-1.21,0.48c-3.96,0.05-7.21,0.9-9.78,2.56
				c-2.56,1.66-4.94,4.03-7.14,7.1C183.53,267.04,183.09,267.31,182.56,267.36z M198.96,316.94c2.73,0,6.35-0.41,10.84-1.25
				c1.61-4.79,2.42-8.18,2.42-10.18c0-2.59-0.88-3.88-2.64-3.88c-2.44,0-6.01,1.71-10.69,5.13c-4.25,3.12-6.42,5.54-6.52,7.25
				C192.37,315.96,194.57,316.94,198.96,316.94z M210.17,286.84l-0.44-0.07c-3.32-0.93-6.45-2.56-9.38-4.91
				c-3.96-3.17-6.1-5.93-6.45-8.28c0-0.24,0.07-0.54,0.22-0.88c0.34-0.54,0.85-0.81,1.54-0.81c0.73,0,1.27,0.39,1.61,1.17
				c0.73,1.86,2.46,3.88,5.2,6.08c2.54,2.05,5.22,3.47,8.06,4.25c0.93,0.29,1.39,0.85,1.39,1.68
				C211.78,286.25,211.2,286.84,210.17,286.84z"/>
			<path class="Alyssa_GS" d="M305.75,394.43c-7.23,0-13.06-2.1-17.5-6.3c-6.93-6.64-10.4-16.21-10.4-28.71
				c0-5.66,0.83-11.57,2.49-17.72c5.66-20.46,14.04-34.47,25.12-42.04c5.71-3.91,11.47-5.86,17.29-5.86c3.52,0,7.06,0.9,10.62,2.71
				c3.56,1.81,6.18,4.86,7.84,9.16c0.68,1.81,1.03,3.69,1.03,5.64c0,3.96-1.37,8.28-4.1,12.96c-3.08,4.69-7.06,8.84-11.94,12.45
				c-2.69,2.05-5.45,3.78-8.28,5.2c-3.56,1.9-6.98,3.44-10.25,4.61l-0.73,1.61c-4.39,10.89-6.59,19.75-6.59,26.59
				c0,7.28,2.29,11.45,6.88,12.52c0.59,0.15,1.22,0.22,1.9,0.22c4.83,0,11.5-2.86,20-8.57c3.96-2.74,6.23-4.39,6.81-4.98
				c-0.93-4.2-1.39-8.38-1.39-12.52c0-10.16,1.93-20.87,5.79-32.15c3.96-10.4,8.52-18.21,13.7-23.44c6.2-6.1,12.21-9.16,18.02-9.16
				c4.05,0,7.45,1.15,10.18,3.44c2.73,2.3,4.54,5.52,5.42,9.67c0.29,1.37,0.44,2.81,0.44,4.32c0,8.79-4.2,18.38-12.6,28.78
				c-4.54,6.59-9.79,13.11-15.75,19.56l-0.07,2.64c0,3.96,0.56,7.28,1.68,9.96c1.42,3.32,3.42,4.98,6.01,4.98
				c2.49,0,5.35-1.51,8.57-4.54c4.35-3.96,8.5-8.89,12.45-14.79c4.83-7.18,8.86-13.99,12.08-20.43c2.29-4.35,3.54-7.69,3.74-10.03
				c0-10.01,0.59-17.5,1.76-22.49c1.12-3.76,3.3-6.54,6.52-8.35c2.1-1.17,4.32-1.76,6.67-1.76c1.22,0,2.49,0.17,3.81,0.51
				c3.71,1.17,6.47,3.34,8.28,6.52c1.17,2.05,1.76,4.25,1.76,6.59c0,1.27-0.18,2.56-0.55,3.88c-0.37,1.32-0.94,3.3-1.72,5.93
				c-4.98,15.63-8.45,28.3-10.4,38.01c3.17-12.01,7.03-22.05,11.57-30.1c7.76-13.67,15.99-21.65,24.68-23.95
				c8.06-14.11,17.31-23.85,27.76-29.22c7.57-3.96,16.09-5.93,25.56-5.93c8.15,0,17.31,1.46,27.47,4.39
				c8.94,2.49,13.4,4.37,13.4,5.64c0,0.59-1.59,3.1-4.76,7.54c-3.61,5.03-7.84,9.96-12.67,14.79c-6.3,6.3-12.92,11.43-19.85,15.38
				c-8.69,4.98-17.31,7.47-25.85,7.47c-2.78-0.05-5.62-0.39-8.5-1.03l0.07,3.22c0,8.11-1.98,16.99-5.93,26.66
				c-2.49,5.61-4.42,11.89-5.79,18.82L467.4,374c0,1.12,0.32,1.68,0.95,1.68c0.59,0,1.32-0.29,2.2-0.88
				c5.71-4.05,13.6-13.6,23.66-28.64l8.06-12.01c0.73-0.98,1.71-1.46,2.93-1.46c0.63,0,1.25,0.2,1.83,0.59
				c1.03,0.73,1.54,1.68,1.54,2.86c0,0.68-0.2,1.32-0.59,1.9c-4.69,6.93-7.28,10.89-7.76,11.87c-4.15,6.49-8.42,12.7-12.82,18.6
				c-3.42,4.69-7.64,8.84-12.67,12.45c-3.91,2.73-8.13,4.1-12.67,4.1c-6.3,0-10.74-3.34-13.33-10.03
				c-1.22-3.71-1.83-7.72-1.83-12.01c0-6.35,0.81-12.35,2.42-18.02l1.03-3.44c2.39-8.01,3.59-14.4,3.59-19.19l-0.07-1.83
				c-0.15-3.22-0.95-4.83-2.42-4.83c-2.78,0-7.28,5.54-13.48,16.63c-5.47,9.62-9.81,22.05-13.04,37.28
				c-1.07,5.37-1.76,9.62-2.05,12.74l-0.51,3.59c-0.59,3.47-1.83,5.2-3.74,5.2c-1.37,0-2.81-1.1-4.32-3.3
				c-1.86-2.93-3.2-6.25-4.03-9.96c-2.49-8.59-4.25-19.21-5.27-31.86c-3.42,6.59-7.1,12.87-11.06,18.82
				c-3.71,5.52-8.13,10.59-13.26,15.23c-4.64,4.25-9.77,7.5-15.38,9.74c-3.27,1.27-6.49,1.9-9.67,1.9c-0.54,0-1.87-0.07-3.99-0.22
				c-2.12-0.15-4.75-1.51-7.87-4.1c-2.2-2-3.96-4.27-5.27-6.81c-1.61,1.22-3.22,2.37-4.83,3.44
				C323.21,390.87,313.91,394.33,305.75,394.43z M311.83,337.3c9.23-4.39,15.89-9.77,20-16.11c1.27-2.2,1.9-3.93,1.9-5.2
				c0-1.51-0.66-2.27-1.98-2.27c-3.47,0-8.2,4.47-14.21,13.4C315.74,329.95,313.83,333.35,311.83,337.3z M362.07,349.24
				c2.78-3.42,5.37-6.86,7.76-10.33c7.47-10.89,11.21-17.99,11.21-21.31c0-0.68-0.2-1.05-0.59-1.1c-0.78,0-2.15,1.27-4.1,3.81
				C369.76,329.59,365,339.23,362.07,349.24z M464.76,304.49c7.13-0.29,13.43-1.46,18.9-3.52c6.15-2.29,11.94-5,17.36-8.13
				c4.15-2.25,8.45-4.37,12.89-6.37c-0.63-0.34-0.95-0.85-0.95-1.54c0-0.24,0.05-0.46,0.15-0.66c0.93-3.42,4.47-6.67,10.62-9.74
				c-5.08-0.88-9.64-1.32-13.7-1.32c-9.03,0-17.07,1.88-24.1,5.64c-9.38,4.83-17.7,13.33-24.98,25.49l1.32-0.07
				C463.15,304.27,463.98,304.34,464.76,304.49z M473.48,302.95l-0.44-0.07c-0.93-0.19-1.39-0.73-1.39-1.61l0.07-0.44
				c1.81-8.79,5.79-15.6,11.94-20.43c0.34-0.24,0.68-0.37,1.03-0.37c1.12,0,1.68,0.59,1.68,1.76c0,0.54-0.22,0.98-0.66,1.32
				c-5.57,4.44-9.11,10.6-10.62,18.46C474.89,302.49,474.35,302.95,473.48,302.95z M487.76,321.63c4.3,0,8.57-0.71,12.82-2.12
				c7.57-2.44,15.09-6.69,22.56-12.74c3.37-2.78,7.08-6.27,11.13-10.47c-3.47-0.49-6.08-1.22-7.84-2.2
				c-1.95-1.03-3.56-2.39-4.83-4.1c-0.25-0.34-0.37-0.68-0.37-1.03c0-0.59,0.19-1.03,0.59-1.32c0.39-0.29,0.76-0.44,1.1-0.44
				c0.54,0,1,0.2,1.39,0.59c0.59,0.73,1.17,1.34,1.76,1.83c1.9,1.66,4.88,2.76,8.94,3.3c0.63,0.1,1.1,0.44,1.39,1.03
				c4.25-5.03,7.59-9.42,10.03-13.18c-7.28-2.59-13.89-4.47-19.85-5.64c0.1,0.25,0.15,0.46,0.15,0.66c0,0.78-0.34,1.32-1.03,1.61
				c-5.57,2.74-8.69,5.42-9.38,8.06c6.45-2.54,13.16-4.1,20.14-4.69c0.49,0,0.92,0.16,1.28,0.48c0.37,0.32,0.55,0.77,0.55,1.35
				c0,0.98-0.51,1.51-1.54,1.61c-7.86,0.63-15.19,2.52-21.97,5.64c-4.2,1.9-8.25,3.93-12.16,6.08
				c-10.99,6.3-21.27,10.11-30.83,11.43c0.68,0.54,1.32,1.12,1.9,1.76c2.64,3.22,4.3,6.98,4.98,11.28
				C481.75,321.21,484.78,321.63,487.76,321.63z M503.87,313.06c-2.1,0-4.32-0.17-6.67-0.51c-4.59-0.63-8.08-1.73-10.47-3.3
				c-0.44-0.34-0.66-0.83-0.66-1.46c0-0.34,0.1-0.66,0.29-0.95c0.39-0.49,0.83-0.73,1.32-0.73c0.34,0,0.71,0.12,1.1,0.37
				c1.9,1.22,4.88,2.12,8.94,2.71c2.15,0.29,4.17,0.44,6.08,0.44c1.71,0,3.44-0.12,5.2-0.37c1.17,0,1.76,0.59,1.76,1.76
				c0,0.29-0.12,0.61-0.37,0.95C509.95,312.69,507.78,313.06,503.87,313.06z M491.93,295.99l-0.37-0.07
				c-0.93-0.19-1.39-0.81-1.39-1.83c1.12-8.79,5.49-15.04,13.11-18.75c0.24-0.1,0.49-0.15,0.73-0.15c1.12,0,1.68,0.59,1.68,1.76
				c0,0.68-0.34,1.17-1.03,1.46c-3.27,1.61-5.67,3.59-7.18,5.93c-1.86,2.64-3.15,6.01-3.88,10.11
				C493.37,295.48,492.81,295.99,491.93,295.99z M521.45,302c-2.1,0-4.22-0.27-6.37-0.81c-4.1-0.98-7.13-2.39-9.08-4.25
				c-0.29-0.29-0.44-0.63-0.44-1.03c0-0.59,0.17-1.05,0.51-1.39c0.34-0.34,0.73-0.51,1.17-0.51c0.49,0,0.9,0.17,1.25,0.51
				c1.46,1.37,3.91,2.47,7.32,3.3c1.95,0.49,3.86,0.73,5.71,0.73c1.17,0,2.42-0.1,3.74-0.29c1.17,0,1.76,0.59,1.76,1.76
				c0,0.29-0.12,0.61-0.37,0.95C526.26,301.66,524.53,302,521.45,302z"/>
			<path class="Alyssa_GS" d="M515.88,393.7c-1.07,0-1.92-0.34-2.53-1.03c-0.61-0.68-0.92-1.51-0.92-2.49
				c-3.37-32.57-10.5-58.89-21.39-78.96c-0.83-1.95-1.25-3.88-1.25-5.79c0-5.71,2.69-9.86,8.06-12.45c1.95-0.88,3.91-1.32,5.86-1.32
				c5.66,0,9.79,2.69,12.38,8.06c3.52,8.2,5.27,21.53,5.27,39.99v3.22c3.66-12.35,8.62-23.24,14.87-32.67
				c3.12-4.69,6.81-8.57,11.06-11.65c3.71-2.78,7.74-4.17,12.08-4.17c3.37,0,6.32,1.15,8.86,3.44c4,3.71,6.01,9.86,6.01,18.46
				c-0.05,6.45-0.83,12.43-2.34,17.94c-1.42,5.27-2.98,10.45-4.69,15.53c-4.15,12.26-6.23,20.34-6.23,24.24
				c0,1.9,0.49,2.86,1.46,2.86c1.66,0,4.83-2.81,9.52-8.42c3.91-4.79,8.28-11.23,13.11-19.34c2.05-3.47,4.88-8.4,8.5-14.79
				c0.73-1.17,1.73-1.76,3-1.76c0.59,0,1.15,0.17,1.68,0.51c1.17,0.68,1.76,1.68,1.76,3c0,0.54-0.15,1.1-0.44,1.68
				c-0.44,0.73-0.85,1.49-1.25,2.27c-7.91,14.26-14.92,25.2-21.02,32.81c-6.74,8.06-12.79,12.08-18.16,12.08
				c-0.93,0-1.81-0.12-2.64-0.37c-7.76-2.39-11.65-11.01-11.65-25.85c0-8.2,0.88-16.72,2.64-25.56c1.56-9.62,2.34-15.84,2.34-18.68
				c0-3.52-0.68-5.27-2.05-5.27c-1.46,0-3.54,1.83-6.23,5.49c-8.45,11.67-14.82,29.4-19.12,53.17c-1.42,7.96-2.47,15.48-3.15,22.56
				c-0.1,0.98-0.48,1.76-1.13,2.34C517.53,393.41,516.76,393.7,515.88,393.7z"/>
			<path class="Alyssa_GS" d="M612.34,391.72c-1.07,0-2.1-0.05-3.08-0.15c-6.69-0.73-11.72-3.32-15.09-7.76
				c-4.35-5.52-6.52-13.21-6.52-23.07l0.07-2.34c0.88-13.87,4.39-26.15,10.55-36.84c4.1-7.03,8.96-13.04,14.58-18.02
				c5.61-4.98,11.77-8.08,18.46-9.3c1.27-0.15,2.49-0.22,3.66-0.22c5.61,0,10.42,2,14.43,6.01c4,4,6.08,9.35,6.23,16.04
				c0,8.25-3.54,15.31-10.62,21.17c-4.1,3.52-9.72,6.01-16.85,7.47c-3.32,0.68-7.01,1.03-11.06,1.03
				c-2.25,6.59-3.37,12.92-3.37,18.97c0,3.86,0.39,6.96,1.17,9.3c0.24-5.27,1.17-9.84,2.78-13.7c4.39-9.96,13.96-16.01,28.71-18.16
				c0.63-0.1,1.25-0.19,1.83-0.29c0.59-0.1,1-0.15,1.25-0.15c0.54,0.1,0.81,0.39,0.81,0.88c-0.34,4.83-1.2,9.28-2.56,13.33
				c-1.32,4.35-3.03,8.13-5.13,11.35c-4.79,7.62-10.96,11.43-18.53,11.43c-2.3,0-4.81-0.42-7.54-1.25c1.71,2.29,4.13,3.44,7.25,3.44
				c2.83,0,6.08-0.88,9.74-2.64c6.69-3.32,13.65-8.16,20.87-14.5c8.3-7.37,15.19-14.43,20.65-21.17c2.88-3.47,4.91-6.3,6.08-8.5
				c0.73-1.22,1.73-1.83,3-1.83c0.54,0,1.1,0.15,1.68,0.44c1.17,0.68,1.76,1.71,1.76,3.08c0,0.54-0.12,1.07-0.37,1.61
				c-1.71,3.08-3.98,6.4-6.81,9.96c-6.1,7.67-13.65,15.21-22.63,22.63C640.22,384.47,625.09,391.72,612.34,391.72z M624.65,377
				c4.88-0.2,9.16-2.17,12.82-5.93c4.35-4.49,7.45-10.47,9.3-17.94c-1.66,0.59-3,0.88-4.03,0.88s-2-0.22-2.93-0.66
				c-0.34-0.19-0.51-0.46-0.51-0.81c0-0.39,0.11-0.63,0.33-0.73c0.22-0.1,0.45-0.15,0.7-0.15c0.83,0.39,1.54,0.59,2.12,0.59
				c1.32,0,2.66-0.27,4.03-0.81c0.29,0,0.51,0.05,0.66,0.15c0.49-1.46,0.95-4.15,1.39-8.06c-3.37,0.44-6.71,1.15-10.03,2.12
				c0.19,0.15,0.32,0.34,0.37,0.59c0,0.25-0.07,0.46-0.22,0.66c-1.51,2-2.27,3.74-2.27,5.2l0.07,0.44c2.29-2.68,4.86-4.91,7.69-6.67
				c0.15-0.1,0.32-0.15,0.51-0.15c0.54,0,0.81,0.29,0.81,0.88c0,0.25-0.12,0.46-0.37,0.66c-4.69,3.03-8.76,7.37-12.23,13.04
				c-3.47,5.47-7.13,9.57-10.99,12.3c-2.1,1.37-3.3,2.05-3.59,2.05c-0.54,0-0.81-0.29-0.81-0.88c0-0.34,0.15-0.59,0.44-0.73
				c5.08-2.93,9.59-7.5,13.55-13.7c1.27-1.95,2.66-3.88,4.17-5.79c-0.63,0-0.95-0.46-0.95-1.39c0-1.76,0.81-3.78,2.42-6.08
				c-6.98,2.25-12.16,5.79-15.53,10.62c-3.12,4.54-4.81,10.84-5.05,18.9c2.64,0.93,5.15,1.39,7.54,1.39H624.65z M621.57,370.19
				h-0.22c-0.44,0-0.73-0.2-0.88-0.59c-0.54-1.81-0.81-3.61-0.81-5.42c0-2.25,0.44-4.35,1.32-6.3c0.15-0.29,0.37-0.44,0.66-0.44
				c0.63,0,0.95,0.29,0.95,0.88l-0.07,0.29c-0.73,1.71-1.12,3.44-1.17,5.2c0,1.76,0.27,3.56,0.81,5.42
				C622.16,369.77,621.96,370.09,621.57,370.19z M619.89,338.77c9.18-0.54,16.11-2.83,20.8-6.88c5.27-4.44,7.91-8.4,7.91-11.87
				c0-0.54-0.07-1.05-0.22-1.54c-0.68-1.86-2.25-2.78-4.69-2.78c-1.46,0-3.15,0.42-5.05,1.25
				C631.21,320.65,624.96,327.93,619.89,338.77z M628.02,362.86h-0.22c-0.44,0-0.71-0.2-0.81-0.59c-0.54-1.07-0.81-2.76-0.81-5.05
				c0-2,0.73-4.03,2.2-6.08c0.15-0.19,0.39-0.29,0.73-0.29c0.44,0,0.71,0.22,0.81,0.66c0,0.25-0.07,0.46-0.22,0.66
				c-1.22,1.66-1.83,3.49-1.83,5.49c0,0.73,0.24,2.2,0.73,4.39C628.6,362.5,628.41,362.76,628.02,362.86z M629.55,369.82
				c-0.83,0-1.25-0.27-1.25-0.81c0-0.59,0.27-0.88,0.81-0.88h0.59c1.07,0,2.44-0.29,4.1-0.88c1.9-0.73,3.49-1.59,4.76-2.56
				c0.15-0.1,0.32-0.15,0.51-0.15c0.59,0,0.88,0.24,0.88,0.73c0,0.34-0.1,0.59-0.29,0.73c-1.42,1.12-3.2,2.08-5.35,2.86
				C632.41,369.5,630.82,369.82,629.55,369.82z M636.22,360.23c-1.46,0-2.2-0.37-2.2-1.1c0-0.34,0.11-0.56,0.33-0.66
				c0.22-0.1,0.43-0.15,0.62-0.15c0.49,0.1,0.98,0.15,1.46,0.15c2.39,0,4.64-0.78,6.74-2.34c0.15-0.1,0.29-0.15,0.44-0.15
				c0.34,0,0.59,0.1,0.73,0.29c0.15,0.19,0.22,0.39,0.22,0.59c-0.05,0.24-0.17,0.44-0.37,0.59c-1.32,1.07-2.88,1.83-4.69,2.27
				C638.29,360.05,637.2,360.23,636.22,360.23z"/>
			<path class="Alyssa_GS" d="M737.88,387.84c-2.88,0-5.9-0.67-9.04-2.01c-3.15-1.34-6.02-4.19-8.61-8.53
				c-3.17-5.57-4.76-12.3-4.76-20.21c0-9.03,1.86-18.33,5.57-27.91c-5.23,2.74-9.38,4.74-12.45,6.01
				c-4.54,1.95-9.13,2.93-13.77,2.93c-3.03,0-6.23-0.54-9.59-1.61c-2.88-0.98-5.27-2.34-7.18-4.1c-4.2-3.86-6.3-8.74-6.3-14.65
				c0-3.56,1.05-6.96,3.15-10.18c1.56-2.49,3.52-4.47,5.86-5.93c2.2-1.17,4.27-1.76,6.23-1.76c1.76,0,3.42,0.46,4.98,1.39
				c3.08,1.86,4.61,5.05,4.61,9.59c0,5.23-2.3,11.69-6.88,19.41c2,0.49,3.98,0.73,5.93,0.73c3.71-0.15,7.28-0.95,10.69-2.42
				c3.91-1.76,7.91-3.93,12.01-6.52c3.52-2.1,6.3-3.88,8.35-5.35c4.25-2.93,8.18-4.39,11.79-4.39c3.32,0,6.14,0.95,8.46,2.86
				s3.82,4.39,4.5,7.47c0.19,0.88,0.29,1.73,0.29,2.56c0,2.2-0.59,4.44-1.76,6.74c-3.37,6.4-6.47,13.6-9.3,21.61
				c-2.69,7.57-4.03,13.99-4.03,19.26v0.59c0.39,4.3,1.88,6.67,4.47,7.1c0.63,0.15,1.29,0.22,1.98,0.22c1.46,0,3.03-0.32,4.69-0.95
				c4.25-1.56,8.59-4.05,13.04-7.47c9.77-7.52,19.38-16.94,28.86-28.27c3.03-3.61,5.44-7.01,7.25-10.18
				c0.68-1.17,1.71-1.76,3.08-1.76c0.54,0,1.07,0.15,1.61,0.44c1.22,0.73,1.83,1.73,1.83,3c0,0.54-0.15,1.07-0.44,1.61
				c-2.2,3.91-4.83,7.79-7.91,11.65c-9.28,11.43-19.38,20.97-30.32,28.64c-4.88,3.42-9.91,6.1-15.09,8.06
				C745.52,387.06,741.59,387.84,737.88,387.84z M683.83,326.61c3.66-6.3,5.49-10.69,5.49-13.18c0-0.15-0.05-0.57-0.15-1.28
				c-0.1-0.71-0.68-1.06-1.76-1.06c-1.42,0-2.64,0.59-3.66,1.76c-1.51,1.76-2.27,4.08-2.27,6.96
				C681.48,322.24,682.26,324.51,683.83,326.61z"/>
			<path class="Alyssa_GS" d="M824.16,477.63c-4.3,0-7.54-2-9.74-6.01c-1.61-2.83-2.42-6.64-2.42-11.43
				c0-6.88,1.78-14.65,5.35-23.29c7.86-18.8,18.46-34.47,31.79-47.02c0.68-11.96,1.03-25,1.03-39.11c0-10.84-0.15-20.24-0.44-28.2
				c-2.74,6.69-5.59,12.94-8.57,18.75c-6.88,13.38-13.77,23.66-20.65,30.83c-6.54,6.74-12.5,10.11-17.87,10.11
				c-5.42,0-9.08-3.34-10.99-10.03c-0.73-2.49-1.1-5.37-1.1-8.64c0-2.25,0.17-4.66,0.51-7.25c0.59-4.2,1.61-10.13,3.08-17.8
				c0.88-4.64,1.32-8.69,1.32-12.16c0-4-0.85-6.69-2.56-8.06c-1.71-2.49-2.56-5.1-2.56-7.84c0-0.78,0.2-2.28,0.59-4.5
				c0.39-2.22,2.15-4.48,5.27-6.78c2.49-1.71,5.1-2.56,7.84-2.56c0.78,0,2.27,0.2,4.47,0.59c2.2,0.39,4.47,2.15,6.81,5.27
				c3.71,5.47,5.57,11.06,5.57,16.77c0,7.52-2.27,15.72-6.81,24.61c-2.98,5.71-6.25,11.38-9.81,16.99
				c-2.93,5.13-4.39,8.86-4.39,11.21c0,2.2,0.95,3.3,2.86,3.3c3.37,0,7.67-2.69,12.89-8.06c6.49-6.79,13.04-16.63,19.63-29.52
				c5.22-10.3,9.69-20.87,13.4-31.71c3.22-8.54,8.06-12.82,14.5-12.82c3.76,0,7.03,1.46,9.81,4.39c2.15,2.3,3.37,5.15,3.66,8.57
				c0.15,1.71,0.22,3.78,0.22,6.23c0,15.48-1.76,35.01-5.27,58.59c4.05-3.12,7.96-6.27,11.72-9.45
				c10.11-8.45,17.94-17.77,23.51-27.98c0.73-1.22,1.73-1.83,3-1.83c0.54,0,1.1,0.15,1.68,0.44c1.17,0.68,1.76,1.68,1.76,3
				c0,0.54-0.12,1.07-0.37,1.61c-3.56,6.54-7.54,12.27-11.94,17.18c-4.39,4.91-9.03,9.39-13.92,13.44
				c-2.88,2.39-8.54,6.91-16.99,13.55c-8.35,49.02-19.41,79.3-33.18,90.82C832.24,475.7,828.02,477.63,824.16,477.63z
				 M825.11,470.82c2,0,4.2-1.15,6.59-3.44c3.37-3.17,6.35-8.74,8.94-16.7c3.81-12.79,6.42-29.54,7.84-50.24
				c-4.88,5.27-9.4,11.13-13.55,17.58c2.1-1.32,3.25-1.98,3.44-1.98c0.44,0,0.73,0.19,0.88,0.59c2,6.25,3,12.45,3,18.6
				c-0.25,12.5-4.52,20.65-12.82,24.46c-2.64,1.27-5.71,1.95-9.23,2.05c-0.39,0-0.66-0.15-0.81-0.44s-0.25-0.53-0.29-0.7
				c-0.05-0.17-0.12-0.33-0.22-0.48C819.13,467.26,821.2,470.82,825.11,470.82z M820.72,460.06c5.76-0.39,10.33-2.37,13.7-5.93
				c4.05-4.39,6.08-11.04,6.08-19.92c0-2.15-0.15-4.32-0.44-6.52c-1.32,1.17-2.43,1.94-3.33,2.31c-0.9,0.37-1.92,0.55-3.04,0.55
				c-0.59-0.1-0.88-0.39-0.88-0.88c0-0.59,0.29-0.88,0.88-0.88s1.03-0.03,1.32-0.07c1.12-0.2,2.46-1,4.03-2.42
				c0.15-0.15,0.32-0.22,0.51-0.22l0.29,0.07c-0.73-3.81-1.37-6.47-1.9-7.98c-1.76,1.07-3.49,2.2-5.2,3.37
				c-0.98,1.66-1.95,3.39-2.93,5.2c-0.1,0.78-0.15,1.46-0.15,2.05c0,1.03,0.19,1.81,0.59,2.34c0.93-3.12,2.44-6.18,4.54-9.16
				c0.19-0.25,0.44-0.37,0.73-0.37c0.54,0,0.81,0.22,0.81,0.66c0,0.29-0.05,0.51-0.15,0.66c-3.22,4.88-5.3,10.45-6.23,16.7
				c-0.54,2.83-1.27,5.69-2.2,8.57c-1.17,3.71-3,7.03-5.49,9.96c-0.15,0.19-0.37,0.29-0.66,0.29c-0.54,0-0.81-0.25-0.81-0.73
				c0-0.25,0.05-0.44,0.15-0.59c3.61-4.54,6.05-10.5,7.32-17.87c0.44-2.3,0.98-4.61,1.61-6.96c-0.15,0.05-0.39,0.07-0.73,0.07
				c-0.39-0.15-0.73-0.95-1.03-2.42c-1.46,2.78-2.81,5.66-4.03,8.64c0.73,1.71,1.56,3.03,2.49,3.96c0.1,0.19,0.15,0.46,0.15,0.81
				c0,0.44-0.27,0.66-0.81,0.66c-0.54,0-1.44-1.07-2.71-3.22c-0.88,2.34-1.66,4.69-2.34,7.03c0.63,1.42,1.46,2.76,2.49,4.03
				c0.15,0.19,0.22,0.41,0.22,0.66c-0.1,0.49-0.46,0.73-1.1,0.73c-0.34,0-1.1-1-2.27-3c-0.44,1.9-0.78,3.74-1.03,5.49
				C819.62,457.1,820.13,458.54,820.72,460.06z M830.02,449.88h-0.22c-0.15,0-0.33-0.06-0.55-0.18c-0.22-0.12-0.33-0.31-0.33-0.55
				c0-0.44,0.22-0.76,0.66-0.95c1.07-0.34,2.37-1.2,3.88-2.56c1.51-1.37,2.66-2.74,3.44-4.1c0.19-0.29,0.44-0.44,0.73-0.44
				c0.54,0,0.83,0.27,0.88,0.81c0,0.15-0.05,0.29-0.15,0.44c-0.88,1.56-2.16,3.1-3.84,4.61
				C832.84,448.46,831.34,449.44,830.02,449.88z M831.41,438.67c-0.54,0-0.85-0.27-0.95-0.81c0-0.59,0.27-0.88,0.81-0.88
				c0.98-0.15,2.14-0.72,3.48-1.72s2.38-2.14,3.11-3.41c0.15-0.29,0.39-0.44,0.73-0.44c0.59,0,0.88,0.27,0.88,0.81
				c0,0.15-0.05,0.29-0.15,0.44c-0.83,1.46-1.98,2.76-3.44,3.88C834.22,437.81,832.73,438.52,831.41,438.67z"/>
		</g>
	</g>
	<g>
		<g>
			<pattern  id="SVGID_1_" xlink:href="#Alyssa" patternTransform="matrix(1.764 0 0 1.764 5661.0762 5098.2046)">
			</pattern>
			<path class="st4" d="M262.94,236.12h-10.92l-9.9-31.36h-29.39l-10.03,31.36h-10.79l29.26-89.57h12.5L262.94,236.12z
				 M239.13,195.69l-11.74-37.07l-11.68,37.07H239.13z"/>
			
				<pattern  id="SVGID_00000083059520374601041880000008361685554491236495_" xlink:href="#Alyssa" patternTransform="matrix(1.764 0 0 1.764 5661.0762 5098.2046)">
			</pattern>
			<path style="fill:url(#SVGID_00000083059520374601041880000008361685554491236495_);" d="M409.32,236.12h-48.75v-89.57h10.41
				v80.49h38.34V236.12z"/>
			
				<pattern  id="SVGID_00000060737775239778322760000002372603158619005359_" xlink:href="#Alyssa" patternTransform="matrix(1.764 0 0 1.764 5661.0762 5098.2046)">
			</pattern>
			<path style="fill:url(#SVGID_00000060737775239778322760000002372603158619005359_);" d="M470.44,236.12h-9.9v-57.57h-19.49
				v-8.57h29.39V236.12z M465.62,144.97c1.86,0,3.45,0.67,4.76,2c1.31,1.33,1.97,2.93,1.97,4.79c0,1.95-0.65,3.58-1.94,4.89
				c-1.29,1.31-2.89,1.97-4.79,1.97c-1.74,0-3.27-0.69-4.6-2.06c-1.33-1.37-2-2.97-2-4.79c0-1.82,0.67-3.41,2-4.76
				C462.35,145.65,463.88,144.97,465.62,144.97z"/>
			
				<pattern  id="SVGID_00000000926250217784650920000016886520730641831588_" xlink:href="#Alyssa" patternTransform="matrix(1.764 0 0 1.764 5661.0762 5098.2046)">
			</pattern>
			<path style="fill:url(#SVGID_00000000926250217784650920000016886520730641831588_);" d="M565.59,233.14
				c-6.64,3.05-13.18,4.57-19.61,4.57c-11.81,0-17.71-6.24-17.71-18.73v-40.43h-12.7v-8.57h12.7v-18.09h9.65v18.09h22.47v8.57
				h-22.47v37.83c0,4.02,0.89,7.14,2.67,9.36c1.78,2.22,4.19,3.33,7.24,3.33c5.42,0,10.77-1.21,16.06-3.62L565.59,233.14z"/>
			
				<pattern  id="SVGID_00000075848306410004924640000013368144097992218784_" xlink:href="#Alyssa" patternTransform="matrix(1.764 0 0 1.764 5661.0762 5098.2046)">
			</pattern>
			<path style="fill:url(#SVGID_00000075848306410004924640000013368144097992218784_);" d="M643.61,233.14
				c-6.64,3.05-13.18,4.57-19.61,4.57c-11.81,0-17.71-6.24-17.71-18.73v-40.43h-12.7v-8.57h12.7v-18.09h9.65v18.09h22.47v8.57
				h-22.47v37.83c0,4.02,0.89,7.14,2.67,9.36c1.78,2.22,4.19,3.33,7.24,3.33c5.42,0,10.77-1.21,16.06-3.62L643.61,233.14z"/>
			
				<pattern  id="SVGID_00000136407194632603845960000016294912686404818579_" xlink:href="#Alyssa" patternTransform="matrix(1.764 0 0 1.764 5661.0762 5098.2046)">
			</pattern>
			<path style="fill:url(#SVGID_00000136407194632603845960000016294912686404818579_);" d="M716.16,236.12h-27.04v-81h-17.27v-8.57
				h27.17v81h17.14V236.12z"/>
			
				<pattern  id="SVGID_00000044157733536916226380000010830618194811398071_" xlink:href="#Alyssa" patternTransform="matrix(1.764 0 0 1.764 5661.0762 5098.2046)">
			</pattern>
			<path style="fill:url(#SVGID_00000044157733536916226380000010830618194811398071_);" d="M800.97,203.37h-45.39
				c0,7.49,2.17,13.67,6.51,18.54c4.34,4.87,9.66,7.3,15.96,7.3c6.01,0,12.21-1.08,18.6-3.24l1.71,7.93
				c-5.84,2.62-12.65,3.94-20.44,3.94c-9.82,0-17.73-3.15-23.74-9.46c-6.01-6.3-9.01-14.81-9.01-25.52c0-10.49,2.7-18.86,8.09-25.11
				c5.39-6.24,12.37-9.36,20.92-9.36c7.62,0,13.99,2.9,19.11,8.7c5.12,5.8,7.68,13.52,7.68,23.17V203.37z M790.17,195.31
				c0-5.16-1.61-9.51-4.82-13.04c-3.22-3.53-6.81-5.3-10.79-5.3c-5.12,0-9.36,1.69-12.73,5.08c-3.36,3.39-5.24,7.81-5.62,13.27
				H790.17z"/>
		</g>
		<g>
			
				<pattern  id="SVGID_00000183959061803995465750000011350317291104498852_" xlink:href="#Alyssa" patternTransform="matrix(1.764 0 0 1.764 5661.0762 5098.2046)">
			</pattern>
			<path style="fill:url(#SVGID_00000183959061803995465750000011350317291104498852_);" d="M104.99,400.29
				c-11.47,0-20.43-6.88-26.88-20.65c-4.44-9.91-6.67-22.63-6.67-38.16c0-2.98,0.07-6.1,0.22-9.38
				c1.32-22.31,6.03-43.46,14.14-63.43c6.3-15.28,14.14-27.15,23.51-35.6c5.03-4.35,10.42-7.4,16.19-9.16
				c2.88-0.93,5.64-1.39,8.28-1.39c11.33,0,17.75,6.74,19.26,20.21c0.1,1.03,0.15,2.05,0.15,3.08c0,4.15-0.56,7.72-1.68,10.69
				l1.76-1.03c11.08-6.54,21.9-9.81,32.45-9.81c12.55,0,25.15,4.81,37.79,14.43c4.15,3.08,8.57,6.81,13.26,11.21
				c1.86,1.76,3.27,2.96,4.25,3.59c1.12,0.88,1.68,1.56,1.68,2.05c0,0.68-1.95,2.1-5.86,4.25c-10.3,5.81-20.56,9.99-30.76,12.52
				c-6.64,1.66-12.96,2.49-18.97,2.49c-15.28,0-27.05-5.13-35.3-15.38c-2.88-3.66-5.25-7.84-7.1-12.52
				c-0.34,0.15-0.71,0.22-1.1,0.22c-0.54,0-1.1-0.15-1.68-0.44c-1.22-0.63-1.83-1.64-1.83-3c0-0.54,0.12-1.07,0.37-1.61
				c3.52-6.88,5.27-12.01,5.27-15.38c0-1.03-0.17-1.83-0.51-2.42c-0.73-1.27-1.86-1.9-3.37-1.9c-0.68,0-1.44,0.12-2.27,0.37
				c-5.27,1.66-9.89,4.76-13.84,9.3c-5.27,6.01-10.01,14.26-14.21,24.76c-3.12,8.11-5.67,16.8-7.62,26.07
				c-3.37,15.77-5.05,28.64-5.05,38.6c0,10.35,1.51,20,4.54,28.93c1.46,4.2,3.2,7.67,5.2,10.4c2.59,3.56,5.37,5.35,8.35,5.35
				c3.56,0,7.13-2.52,10.69-7.54c3.91-5.71,7.3-12.92,10.18-21.61c2.83-8.98,5.61-20.65,8.35-35.01c-4.25,1.22-7.91,1.83-10.99,1.83
				c-2.39,0.15-3.66,0.39-3.81,0.73c-0.29,1.95-1.12,3.46-2.49,4.5c-1.37,1.05-2.88,1.57-4.54,1.57c-2.1,0-3.83-0.85-5.2-2.56
				c-1.03-1.27-1.54-2.71-1.54-4.32l0.07-0.81c0.54-3.66,1.98-6.2,4.32-7.62c1.66-1.03,3.56-1.75,5.71-2.16
				c2.15-0.41,4.42-0.74,6.81-0.99c4.2-0.54,6.71-1.37,7.54-2.49c1.95-1.76,4.05-2.64,6.3-2.64c0.98,0,1.9,0.17,2.78,0.51
				c2.44,0.93,3.66,2.69,3.66,5.27v0.73c-0.29,1.76-0.95,10.28-1.98,25.56c-0.34,7.47-0.61,14.94-0.81,22.41
				c0.05,3.81,0.27,7.1,0.66,9.89c1.22,6.93,3.3,10.74,6.23,11.43c0.59,0.15,1.2,0.22,1.83,0.22c2.54,0,5.3-1.22,8.28-3.66
				c5.13-4.35,9.55-9.13,13.26-14.36c8.54-11.47,15.89-23.85,22.05-37.13c-5.62-0.15-9.94-1.07-12.96-2.78
				c-4.15-2.34-6.23-5.44-6.23-9.3c0-4,2.03-8.1,6.08-12.3c2.54-2.64,6.15-5.13,10.84-7.47c2.93-1.42,5.61-2.12,8.06-2.12
				c2.34,0,4.32,0.83,5.93,2.49c1.71,2.05,2.56,4.93,2.56,8.64c0,2.49-0.37,5.01-1.1,7.54c2.93-0.73,5.49-1.44,7.69-2.12
				c2.2-0.68,4.88-1.49,8.06-2.42c7.76-2.49,14.06-3.74,18.9-3.74c1.76,0,3.44,0.15,5.05,0.44c5.03,0.88,8.03,3.71,9.01,8.5
				l0.07,1.25c0,1.42-0.45,2.8-1.36,4.14s-2.31,2.23-4.21,2.67c-0.49,0.1-0.95,0.15-1.39,0.15c-0.73,0-1.46-0.12-2.2-0.37
				c-0.44,1.17-1.46,3.44-3.08,6.81c-12.35,25.88-18.53,43.63-18.53,53.25c0,1.51,0.17,2.78,0.51,3.81
				c0.88,2.59,2.46,3.88,4.76,3.88c1.56,0,3.34-0.49,5.35-1.46c3.96-2.05,7.86-5.23,11.72-9.52c5.32-6.05,10.21-12.82,14.65-20.29
				c5.96-10.21,10.01-18.24,12.16-24.1c0.59-1.51,1.64-2.27,3.15-2.27c0.39,0,0.81,0.07,1.25,0.22c1.51,0.59,2.27,1.64,2.27,3.15
				c0,0.39-0.07,0.81-0.22,1.25c-2.25,6.3-6.47,14.72-12.67,25.27c-4.64,7.81-9.79,14.94-15.45,21.39
				c-4.98,5.57-9.91,9.42-14.79,11.57c-2.49,1.07-4.86,1.61-7.1,1.61c-4.88,0-8.79-2.44-11.72-7.32c-3.52-5.91-5.27-15.6-5.27-29.08
				c0-11.03,1.32-22.8,3.96-35.3c-6.84,1.9-12.16,3.08-15.97,3.52c-1.66,3.76-3.52,7.64-5.57,11.65
				c-11.47,22.22-22.85,37.25-34.13,45.12c-4.59,3.27-8.76,4.91-12.52,4.91c-3.66,0-6.74-1.59-9.23-4.76
				c-3.66-4.54-5.49-12.13-5.49-22.78l0.07-5.35c-4.49,15.19-11.04,26.54-19.63,34.06C118.93,397.43,112.07,400.29,104.99,400.29z
				 M186.95,292.7c9.81,0,20.78-2.34,32.89-7.03c-4.15-2.68-6.76-5.44-7.84-8.28c-0.63-1.46-0.95-2.56-0.95-3.3
				c0-1.12,0.59-1.68,1.76-1.68c0.88,0,1.44,0.49,1.68,1.46c0.54,3.12,3.03,6.15,7.47,9.08c0.54,0.34,0.81,0.83,0.81,1.46
				c5.32-2.29,10.21-4.83,14.65-7.62c-5.47-5.47-10.65-10.01-15.53-13.62c0,1.17-0.56,1.76-1.68,1.76c-6.01,0-10.01,1.07-12.01,3.22
				c6.3,0.29,13.06,1.76,20.29,4.39c0.73,0.34,1.1,0.85,1.1,1.54c0,1.12-0.56,1.71-1.68,1.76l-0.66-0.07
				c-6.64-2.44-12.87-3.81-18.68-4.1c-2.74-0.15-5.45-0.22-8.13-0.22c-3.03,0-6.05,0.11-9.08,0.33c-3.03,0.22-6.15,0.33-9.38,0.33
				c-3.17,0-7.21-0.18-12.12-0.55c-4.91-0.37-11.12-2.21-18.64-5.53c-0.68-0.39-1.03-0.93-1.03-1.61c0-0.24,0.05-0.46,0.15-0.66
				c0.39-0.68,0.9-1.03,1.54-1.03c0.24,0,0.49,0.05,0.73,0.15c7.18,3.17,13.92,4.98,20.21,5.42c3.12,0.2,6.23,0.29,9.3,0.29
				s6.15-0.1,9.23-0.29c3.08-0.19,6.23-0.29,9.45-0.29l4.83,0.07c-0.2-0.34-0.29-0.68-0.29-1.03c0.05-1.37,1.71-2.73,4.98-4.1
				c2.1-0.93,5.2-1.42,9.3-1.46c-11.72-8.25-23.1-12.38-34.13-12.38c-11.77,0-23.85,4.35-36.25,13.04c-0.59,1.12-1.22,2.22-1.9,3.3
				C153.92,283.62,167.13,292.7,186.95,292.7z M162.86,265.74c-0.44,0-0.85-0.15-1.25-0.44c-0.39-0.29-0.59-0.71-0.59-1.25
				c0-0.39,0.1-0.76,0.29-1.1c5.37-7.18,11.89-11.62,19.56-13.33l0.44-0.07c1.12,0,1.68,0.59,1.68,1.76c0,0.83-0.46,1.39-1.39,1.68
				c-6.93,1.56-12.77,5.59-17.5,12.08C163.81,265.43,163.39,265.65,162.86,265.74z M190.76,289.84l-0.44-0.07
				c-3.52-1.03-7.18-2.79-10.99-5.31s-6.47-4.99-7.98-7.43c-0.15-0.29-0.22-0.56-0.22-0.81c0-1.17,0.56-1.76,1.68-1.76
				c0.68,0,1.2,0.29,1.54,0.88c1.17,1.9,3.48,4,6.92,6.3c3.44,2.3,6.75,3.88,9.92,4.76c0.88,0.29,1.32,0.85,1.32,1.68
				C192.37,289.25,191.79,289.84,190.76,289.84z M182.56,267.36c-0.44,0-0.85-0.15-1.25-0.44c-0.39-0.29-0.59-0.71-0.59-1.25
				c0-0.49,0.17-0.9,0.51-1.25c2.15-3.08,4.71-5.65,7.69-7.73c2.98-2.07,6.93-3.16,11.87-3.26c0.49,0,0.89,0.17,1.21,0.51
				c0.32,0.34,0.48,0.76,0.48,1.25c0,0.49-0.16,0.89-0.48,1.21c-0.32,0.32-0.72,0.48-1.21,0.48c-3.96,0.05-7.21,0.9-9.78,2.56
				c-2.56,1.66-4.94,4.03-7.14,7.1C183.53,267.04,183.09,267.31,182.56,267.36z M198.96,316.94c2.73,0,6.35-0.41,10.84-1.25
				c1.61-4.79,2.42-8.18,2.42-10.18c0-2.59-0.88-3.88-2.64-3.88c-2.44,0-6.01,1.71-10.69,5.13c-4.25,3.12-6.42,5.54-6.52,7.25
				C192.37,315.96,194.57,316.94,198.96,316.94z M210.17,286.84l-0.44-0.07c-3.32-0.93-6.45-2.56-9.38-4.91
				c-3.96-3.17-6.1-5.93-6.45-8.28c0-0.24,0.07-0.54,0.22-0.88c0.34-0.54,0.85-0.81,1.54-0.81c0.73,0,1.27,0.39,1.61,1.17
				c0.73,1.86,2.46,3.88,5.2,6.08c2.54,2.05,5.22,3.47,8.06,4.25c0.93,0.29,1.39,0.85,1.39,1.68
				C211.78,286.25,211.2,286.84,210.17,286.84z"/>
			
				<pattern  id="SVGID_00000075864848367415650410000007813934469356865196_" xlink:href="#Alyssa" patternTransform="matrix(1.764 0 0 1.764 5661.0762 5098.2046)">
			</pattern>
			<path style="fill:url(#SVGID_00000075864848367415650410000007813934469356865196_);" d="M305.75,394.43
				c-7.23,0-13.06-2.1-17.5-6.3c-6.93-6.64-10.4-16.21-10.4-28.71c0-5.66,0.83-11.57,2.49-17.72c5.66-20.46,14.04-34.47,25.12-42.04
				c5.71-3.91,11.47-5.86,17.29-5.86c3.52,0,7.06,0.9,10.62,2.71c3.56,1.81,6.18,4.86,7.84,9.16c0.68,1.81,1.03,3.69,1.03,5.64
				c0,3.96-1.37,8.28-4.1,12.96c-3.08,4.69-7.06,8.84-11.94,12.45c-2.69,2.05-5.45,3.78-8.28,5.2c-3.56,1.9-6.98,3.44-10.25,4.61
				l-0.73,1.61c-4.39,10.89-6.59,19.75-6.59,26.59c0,7.28,2.29,11.45,6.88,12.52c0.59,0.15,1.22,0.22,1.9,0.22
				c4.83,0,11.5-2.86,20-8.57c3.96-2.74,6.23-4.39,6.81-4.98c-0.93-4.2-1.39-8.38-1.39-12.52c0-10.16,1.93-20.87,5.79-32.15
				c3.96-10.4,8.52-18.21,13.7-23.44c6.2-6.1,12.21-9.16,18.02-9.16c4.05,0,7.45,1.15,10.18,3.44c2.73,2.3,4.54,5.52,5.42,9.67
				c0.29,1.37,0.44,2.81,0.44,4.32c0,8.79-4.2,18.38-12.6,28.78c-4.54,6.59-9.79,13.11-15.75,19.56l-0.07,2.64
				c0,3.96,0.56,7.28,1.68,9.96c1.42,3.32,3.42,4.98,6.01,4.98c2.49,0,5.35-1.51,8.57-4.54c4.35-3.96,8.5-8.89,12.45-14.79
				c4.83-7.18,8.86-13.99,12.08-20.43c2.29-4.35,3.54-7.69,3.74-10.03c0-10.01,0.59-17.5,1.76-22.49c1.12-3.76,3.3-6.54,6.52-8.35
				c2.1-1.17,4.32-1.76,6.67-1.76c1.22,0,2.49,0.17,3.81,0.51c3.71,1.17,6.47,3.34,8.28,6.52c1.17,2.05,1.76,4.25,1.76,6.59
				c0,1.27-0.18,2.56-0.55,3.88c-0.37,1.32-0.94,3.3-1.72,5.93c-4.98,15.63-8.45,28.3-10.4,38.01c3.17-12.01,7.03-22.05,11.57-30.1
				c7.76-13.67,15.99-21.65,24.68-23.95c8.06-14.11,17.31-23.85,27.76-29.22c7.57-3.96,16.09-5.93,25.56-5.93
				c8.15,0,17.31,1.46,27.47,4.39c8.94,2.49,13.4,4.37,13.4,5.64c0,0.59-1.59,3.1-4.76,7.54c-3.61,5.03-7.84,9.96-12.67,14.79
				c-6.3,6.3-12.92,11.43-19.85,15.38c-8.69,4.98-17.31,7.47-25.85,7.47c-2.78-0.05-5.62-0.39-8.5-1.03l0.07,3.22
				c0,8.11-1.98,16.99-5.93,26.66c-2.49,5.61-4.42,11.89-5.79,18.82L467.4,374c0,1.12,0.32,1.68,0.95,1.68
				c0.59,0,1.32-0.29,2.2-0.88c5.71-4.05,13.6-13.6,23.66-28.64l8.06-12.01c0.73-0.98,1.71-1.46,2.93-1.46
				c0.63,0,1.25,0.2,1.83,0.59c1.03,0.73,1.54,1.68,1.54,2.86c0,0.68-0.2,1.32-0.59,1.9c-4.69,6.93-7.28,10.89-7.76,11.87
				c-4.15,6.49-8.42,12.7-12.82,18.6c-3.42,4.69-7.64,8.84-12.67,12.45c-3.91,2.73-8.13,4.1-12.67,4.1
				c-6.3,0-10.74-3.34-13.33-10.03c-1.22-3.71-1.83-7.72-1.83-12.01c0-6.35,0.81-12.35,2.42-18.02l1.03-3.44
				c2.39-8.01,3.59-14.4,3.59-19.19l-0.07-1.83c-0.15-3.22-0.95-4.83-2.42-4.83c-2.78,0-7.28,5.54-13.48,16.63
				c-5.47,9.62-9.81,22.05-13.04,37.28c-1.07,5.37-1.76,9.62-2.05,12.74l-0.51,3.59c-0.59,3.47-1.83,5.2-3.74,5.2
				c-1.37,0-2.81-1.1-4.32-3.3c-1.86-2.93-3.2-6.25-4.03-9.96c-2.49-8.59-4.25-19.21-5.27-31.86c-3.42,6.59-7.1,12.87-11.06,18.82
				c-3.71,5.52-8.13,10.59-13.26,15.23c-4.64,4.25-9.77,7.5-15.38,9.74c-3.27,1.27-6.49,1.9-9.67,1.9c-0.54,0-1.87-0.07-3.99-0.22
				c-2.12-0.15-4.75-1.51-7.87-4.1c-2.2-2-3.96-4.27-5.27-6.81c-1.61,1.22-3.22,2.37-4.83,3.44
				C323.21,390.87,313.91,394.33,305.75,394.43z M311.83,337.3c9.23-4.39,15.89-9.77,20-16.11c1.27-2.2,1.9-3.93,1.9-5.2
				c0-1.51-0.66-2.27-1.98-2.27c-3.47,0-8.2,4.47-14.21,13.4C315.74,329.95,313.83,333.35,311.83,337.3z M362.07,349.24
				c2.78-3.42,5.37-6.86,7.76-10.33c7.47-10.89,11.21-17.99,11.21-21.31c0-0.68-0.2-1.05-0.59-1.1c-0.78,0-2.15,1.27-4.1,3.81
				C369.76,329.59,365,339.23,362.07,349.24z M464.76,304.49c7.13-0.29,13.43-1.46,18.9-3.52c6.15-2.29,11.94-5,17.36-8.13
				c4.15-2.25,8.45-4.37,12.89-6.37c-0.63-0.34-0.95-0.85-0.95-1.54c0-0.24,0.05-0.46,0.15-0.66c0.93-3.42,4.47-6.67,10.62-9.74
				c-5.08-0.88-9.64-1.32-13.7-1.32c-9.03,0-17.07,1.88-24.1,5.64c-9.38,4.83-17.7,13.33-24.98,25.49l1.32-0.07
				C463.15,304.27,463.98,304.34,464.76,304.49z M473.48,302.95l-0.44-0.07c-0.93-0.19-1.39-0.73-1.39-1.61l0.07-0.44
				c1.81-8.79,5.79-15.6,11.94-20.43c0.34-0.24,0.68-0.37,1.03-0.37c1.12,0,1.68,0.59,1.68,1.76c0,0.54-0.22,0.98-0.66,1.32
				c-5.57,4.44-9.11,10.6-10.62,18.46C474.89,302.49,474.35,302.95,473.48,302.95z M487.76,321.63c4.3,0,8.57-0.71,12.82-2.12
				c7.57-2.44,15.09-6.69,22.56-12.74c3.37-2.78,7.08-6.27,11.13-10.47c-3.47-0.49-6.08-1.22-7.84-2.2
				c-1.95-1.03-3.56-2.39-4.83-4.1c-0.25-0.34-0.37-0.68-0.37-1.03c0-0.59,0.19-1.03,0.59-1.32c0.39-0.29,0.76-0.44,1.1-0.44
				c0.54,0,1,0.2,1.39,0.59c0.59,0.73,1.17,1.34,1.76,1.83c1.9,1.66,4.88,2.76,8.94,3.3c0.63,0.1,1.1,0.44,1.39,1.03
				c4.25-5.03,7.59-9.42,10.03-13.18c-7.28-2.59-13.89-4.47-19.85-5.64c0.1,0.25,0.15,0.46,0.15,0.66c0,0.78-0.34,1.32-1.03,1.61
				c-5.57,2.74-8.69,5.42-9.38,8.06c6.45-2.54,13.16-4.1,20.14-4.69c0.49,0,0.92,0.16,1.28,0.48c0.37,0.32,0.55,0.77,0.55,1.35
				c0,0.98-0.51,1.51-1.54,1.61c-7.86,0.63-15.19,2.52-21.97,5.64c-4.2,1.9-8.25,3.93-12.16,6.08
				c-10.99,6.3-21.27,10.11-30.83,11.43c0.68,0.54,1.32,1.12,1.9,1.76c2.64,3.22,4.3,6.98,4.98,11.28
				C481.75,321.21,484.78,321.63,487.76,321.63z M503.87,313.06c-2.1,0-4.32-0.17-6.67-0.51c-4.59-0.63-8.08-1.73-10.47-3.3
				c-0.44-0.34-0.66-0.83-0.66-1.46c0-0.34,0.1-0.66,0.29-0.95c0.39-0.49,0.83-0.73,1.32-0.73c0.34,0,0.71,0.12,1.1,0.37
				c1.9,1.22,4.88,2.12,8.94,2.71c2.15,0.29,4.17,0.44,6.08,0.44c1.71,0,3.44-0.12,5.2-0.37c1.17,0,1.76,0.59,1.76,1.76
				c0,0.29-0.12,0.61-0.37,0.95C509.95,312.69,507.78,313.06,503.87,313.06z M491.93,295.99l-0.37-0.07
				c-0.93-0.19-1.39-0.81-1.39-1.83c1.12-8.79,5.49-15.04,13.11-18.75c0.24-0.1,0.49-0.15,0.73-0.15c1.12,0,1.68,0.59,1.68,1.76
				c0,0.68-0.34,1.17-1.03,1.46c-3.27,1.61-5.67,3.59-7.18,5.93c-1.86,2.64-3.15,6.01-3.88,10.11
				C493.37,295.48,492.81,295.99,491.93,295.99z M521.45,302c-2.1,0-4.22-0.27-6.37-0.81c-4.1-0.98-7.13-2.39-9.08-4.25
				c-0.29-0.29-0.44-0.63-0.44-1.03c0-0.59,0.17-1.05,0.51-1.39c0.34-0.34,0.73-0.51,1.17-0.51c0.49,0,0.9,0.17,1.25,0.51
				c1.46,1.37,3.91,2.47,7.32,3.3c1.95,0.49,3.86,0.73,5.71,0.73c1.17,0,2.42-0.1,3.74-0.29c1.17,0,1.76,0.59,1.76,1.76
				c0,0.29-0.12,0.61-0.37,0.95C526.26,301.66,524.53,302,521.45,302z"/>
			
				<pattern  id="SVGID_00000067213685263682442590000005855882345650311589_" xlink:href="#Alyssa" patternTransform="matrix(1.764 0 0 1.764 5661.0762 5098.2046)">
			</pattern>
			<path style="fill:url(#SVGID_00000067213685263682442590000005855882345650311589_);" d="M515.88,393.7
				c-1.07,0-1.92-0.34-2.53-1.03c-0.61-0.68-0.92-1.51-0.92-2.49c-3.37-32.57-10.5-58.89-21.39-78.96
				c-0.83-1.95-1.25-3.88-1.25-5.79c0-5.71,2.69-9.86,8.06-12.45c1.95-0.88,3.91-1.32,5.86-1.32c5.66,0,9.79,2.69,12.38,8.06
				c3.52,8.2,5.27,21.53,5.27,39.99v3.22c3.66-12.35,8.62-23.24,14.87-32.67c3.12-4.69,6.81-8.57,11.06-11.65
				c3.71-2.78,7.74-4.17,12.08-4.17c3.37,0,6.32,1.15,8.86,3.44c4,3.71,6.01,9.86,6.01,18.46c-0.05,6.45-0.83,12.43-2.34,17.94
				c-1.42,5.27-2.98,10.45-4.69,15.53c-4.15,12.26-6.23,20.34-6.23,24.24c0,1.9,0.49,2.86,1.46,2.86c1.66,0,4.83-2.81,9.52-8.42
				c3.91-4.79,8.28-11.23,13.11-19.34c2.05-3.47,4.88-8.4,8.5-14.79c0.73-1.17,1.73-1.76,3-1.76c0.59,0,1.15,0.17,1.68,0.51
				c1.17,0.68,1.76,1.68,1.76,3c0,0.54-0.15,1.1-0.44,1.68c-0.44,0.73-0.85,1.49-1.25,2.27c-7.91,14.26-14.92,25.2-21.02,32.81
				c-6.74,8.06-12.79,12.08-18.16,12.08c-0.93,0-1.81-0.12-2.64-0.37c-7.76-2.39-11.65-11.01-11.65-25.85
				c0-8.2,0.88-16.72,2.64-25.56c1.56-9.62,2.34-15.84,2.34-18.68c0-3.52-0.68-5.27-2.05-5.27c-1.46,0-3.54,1.83-6.23,5.49
				c-8.45,11.67-14.82,29.4-19.12,53.17c-1.42,7.96-2.47,15.48-3.15,22.56c-0.1,0.98-0.48,1.76-1.13,2.34
				C517.53,393.41,516.76,393.7,515.88,393.7z"/>
			
				<pattern  id="SVGID_00000106869681225968190040000011624360066835154604_" xlink:href="#Alyssa" patternTransform="matrix(1.764 0 0 1.764 5661.0762 5098.2046)">
			</pattern>
			<path style="fill:url(#SVGID_00000106869681225968190040000011624360066835154604_);" d="M612.34,391.72
				c-1.07,0-2.1-0.05-3.08-0.15c-6.69-0.73-11.72-3.32-15.09-7.76c-4.35-5.52-6.52-13.21-6.52-23.07l0.07-2.34
				c0.88-13.87,4.39-26.15,10.55-36.84c4.1-7.03,8.96-13.04,14.58-18.02c5.61-4.98,11.77-8.08,18.46-9.3
				c1.27-0.15,2.49-0.22,3.66-0.22c5.61,0,10.42,2,14.43,6.01c4,4,6.08,9.35,6.23,16.04c0,8.25-3.54,15.31-10.62,21.17
				c-4.1,3.52-9.72,6.01-16.85,7.47c-3.32,0.68-7.01,1.03-11.06,1.03c-2.25,6.59-3.37,12.92-3.37,18.97c0,3.86,0.39,6.96,1.17,9.3
				c0.24-5.27,1.17-9.84,2.78-13.7c4.39-9.96,13.96-16.01,28.71-18.16c0.63-0.1,1.25-0.19,1.83-0.29c0.59-0.1,1-0.15,1.25-0.15
				c0.54,0.1,0.81,0.39,0.81,0.88c-0.34,4.83-1.2,9.28-2.56,13.33c-1.32,4.35-3.03,8.13-5.13,11.35
				c-4.79,7.62-10.96,11.43-18.53,11.43c-2.3,0-4.81-0.42-7.54-1.25c1.71,2.29,4.13,3.44,7.25,3.44c2.83,0,6.08-0.88,9.74-2.64
				c6.69-3.32,13.65-8.16,20.87-14.5c8.3-7.37,15.19-14.43,20.65-21.17c2.88-3.47,4.91-6.3,6.08-8.5c0.73-1.22,1.73-1.83,3-1.83
				c0.54,0,1.1,0.15,1.68,0.44c1.17,0.68,1.76,1.71,1.76,3.08c0,0.54-0.12,1.07-0.37,1.61c-1.71,3.08-3.98,6.4-6.81,9.96
				c-6.1,7.67-13.65,15.21-22.63,22.63C640.22,384.47,625.09,391.72,612.34,391.72z M624.65,377c4.88-0.2,9.16-2.17,12.82-5.93
				c4.35-4.49,7.45-10.47,9.3-17.94c-1.66,0.59-3,0.88-4.03,0.88s-2-0.22-2.93-0.66c-0.34-0.19-0.51-0.46-0.51-0.81
				c0-0.39,0.11-0.63,0.33-0.73c0.22-0.1,0.45-0.15,0.7-0.15c0.83,0.39,1.54,0.59,2.12,0.59c1.32,0,2.66-0.27,4.03-0.81
				c0.29,0,0.51,0.05,0.66,0.15c0.49-1.46,0.95-4.15,1.39-8.06c-3.37,0.44-6.71,1.15-10.03,2.12c0.19,0.15,0.32,0.34,0.37,0.59
				c0,0.25-0.07,0.46-0.22,0.66c-1.51,2-2.27,3.74-2.27,5.2l0.07,0.44c2.29-2.68,4.86-4.91,7.69-6.67c0.15-0.1,0.32-0.15,0.51-0.15
				c0.54,0,0.81,0.29,0.81,0.88c0,0.25-0.12,0.46-0.37,0.66c-4.69,3.03-8.76,7.37-12.23,13.04c-3.47,5.47-7.13,9.57-10.99,12.3
				c-2.1,1.37-3.3,2.05-3.59,2.05c-0.54,0-0.81-0.29-0.81-0.88c0-0.34,0.15-0.59,0.44-0.73c5.08-2.93,9.59-7.5,13.55-13.7
				c1.27-1.95,2.66-3.88,4.17-5.79c-0.63,0-0.95-0.46-0.95-1.39c0-1.76,0.81-3.78,2.42-6.08c-6.98,2.25-12.16,5.79-15.53,10.62
				c-3.12,4.54-4.81,10.84-5.05,18.9c2.64,0.93,5.15,1.39,7.54,1.39H624.65z M621.57,370.19h-0.22c-0.44,0-0.73-0.2-0.88-0.59
				c-0.54-1.81-0.81-3.61-0.81-5.42c0-2.25,0.44-4.35,1.32-6.3c0.15-0.29,0.37-0.44,0.66-0.44c0.63,0,0.95,0.29,0.95,0.88
				l-0.07,0.29c-0.73,1.71-1.12,3.44-1.17,5.2c0,1.76,0.27,3.56,0.81,5.42C622.16,369.77,621.96,370.09,621.57,370.19z
				 M619.89,338.77c9.18-0.54,16.11-2.83,20.8-6.88c5.27-4.44,7.91-8.4,7.91-11.87c0-0.54-0.07-1.05-0.22-1.54
				c-0.68-1.86-2.25-2.78-4.69-2.78c-1.46,0-3.15,0.42-5.05,1.25C631.21,320.65,624.96,327.93,619.89,338.77z M628.02,362.86h-0.22
				c-0.44,0-0.71-0.2-0.81-0.59c-0.54-1.07-0.81-2.76-0.81-5.05c0-2,0.73-4.03,2.2-6.08c0.15-0.19,0.39-0.29,0.73-0.29
				c0.44,0,0.71,0.22,0.81,0.66c0,0.25-0.07,0.46-0.22,0.66c-1.22,1.66-1.83,3.49-1.83,5.49c0,0.73,0.24,2.2,0.73,4.39
				C628.6,362.5,628.41,362.76,628.02,362.86z M629.55,369.82c-0.83,0-1.25-0.27-1.25-0.81c0-0.59,0.27-0.88,0.81-0.88h0.59
				c1.07,0,2.44-0.29,4.1-0.88c1.9-0.73,3.49-1.59,4.76-2.56c0.15-0.1,0.32-0.15,0.51-0.15c0.59,0,0.88,0.24,0.88,0.73
				c0,0.34-0.1,0.59-0.29,0.73c-1.42,1.12-3.2,2.08-5.35,2.86C632.41,369.5,630.82,369.82,629.55,369.82z M636.22,360.23
				c-1.46,0-2.2-0.37-2.2-1.1c0-0.34,0.11-0.56,0.33-0.66c0.22-0.1,0.43-0.15,0.62-0.15c0.49,0.1,0.98,0.15,1.46,0.15
				c2.39,0,4.64-0.78,6.74-2.34c0.15-0.1,0.29-0.15,0.44-0.15c0.34,0,0.59,0.1,0.73,0.29c0.15,0.19,0.22,0.39,0.22,0.59
				c-0.05,0.24-0.17,0.44-0.37,0.59c-1.32,1.07-2.88,1.83-4.69,2.27C638.29,360.05,637.2,360.23,636.22,360.23z"/>
			
				<pattern  id="SVGID_00000090279686038639126860000005481071190101405360_" xlink:href="#Alyssa" patternTransform="matrix(1.764 0 0 1.764 5661.0762 5098.2046)">
			</pattern>
			<path style="fill:url(#SVGID_00000090279686038639126860000005481071190101405360_);" d="M737.88,387.84
				c-2.88,0-5.9-0.67-9.04-2.01c-3.15-1.34-6.02-4.19-8.61-8.53c-3.17-5.57-4.76-12.3-4.76-20.21c0-9.03,1.86-18.33,5.57-27.91
				c-5.23,2.74-9.38,4.74-12.45,6.01c-4.54,1.95-9.13,2.93-13.77,2.93c-3.03,0-6.23-0.54-9.59-1.61c-2.88-0.98-5.27-2.34-7.18-4.1
				c-4.2-3.86-6.3-8.74-6.3-14.65c0-3.56,1.05-6.96,3.15-10.18c1.56-2.49,3.52-4.47,5.86-5.93c2.2-1.17,4.27-1.76,6.23-1.76
				c1.76,0,3.42,0.46,4.98,1.39c3.08,1.86,4.61,5.05,4.61,9.59c0,5.23-2.3,11.69-6.88,19.41c2,0.49,3.98,0.73,5.93,0.73
				c3.71-0.15,7.28-0.95,10.69-2.42c3.91-1.76,7.91-3.93,12.01-6.52c3.52-2.1,6.3-3.88,8.35-5.35c4.25-2.93,8.18-4.39,11.79-4.39
				c3.32,0,6.14,0.95,8.46,2.86s3.82,4.39,4.5,7.47c0.19,0.88,0.29,1.73,0.29,2.56c0,2.2-0.59,4.44-1.76,6.74
				c-3.37,6.4-6.47,13.6-9.3,21.61c-2.69,7.57-4.03,13.99-4.03,19.26v0.59c0.39,4.3,1.88,6.67,4.47,7.1
				c0.63,0.15,1.29,0.22,1.98,0.22c1.46,0,3.03-0.32,4.69-0.95c4.25-1.56,8.59-4.05,13.04-7.47c9.77-7.52,19.38-16.94,28.86-28.27
				c3.03-3.61,5.44-7.01,7.25-10.18c0.68-1.17,1.71-1.76,3.08-1.76c0.54,0,1.07,0.15,1.61,0.44c1.22,0.73,1.83,1.73,1.83,3
				c0,0.54-0.15,1.07-0.44,1.61c-2.2,3.91-4.83,7.79-7.91,11.65c-9.28,11.43-19.38,20.97-30.32,28.64
				c-4.88,3.42-9.91,6.1-15.09,8.06C745.52,387.06,741.59,387.84,737.88,387.84z M683.83,326.61c3.66-6.3,5.49-10.69,5.49-13.18
				c0-0.15-0.05-0.57-0.15-1.28c-0.1-0.71-0.68-1.06-1.76-1.06c-1.42,0-2.64,0.59-3.66,1.76c-1.51,1.76-2.27,4.08-2.27,6.96
				C681.48,322.24,682.26,324.51,683.83,326.61z"/>
			
				<pattern  id="SVGID_00000048474042806052783010000010948265410261807749_" xlink:href="#Alyssa" patternTransform="matrix(1.764 0 0 1.764 5661.0762 5098.2046)">
			</pattern>
			<path style="fill:url(#SVGID_00000048474042806052783010000010948265410261807749_);" d="M824.16,477.63c-4.3,0-7.54-2-9.74-6.01
				c-1.61-2.83-2.42-6.64-2.42-11.43c0-6.88,1.78-14.65,5.35-23.29c7.86-18.8,18.46-34.47,31.79-47.02
				c0.68-11.96,1.03-25,1.03-39.11c0-10.84-0.15-20.24-0.44-28.2c-2.74,6.69-5.59,12.94-8.57,18.75
				c-6.88,13.38-13.77,23.66-20.65,30.83c-6.54,6.74-12.5,10.11-17.87,10.11c-5.42,0-9.08-3.34-10.99-10.03
				c-0.73-2.49-1.1-5.37-1.1-8.64c0-2.25,0.17-4.66,0.51-7.25c0.59-4.2,1.61-10.13,3.08-17.8c0.88-4.64,1.32-8.69,1.32-12.16
				c0-4-0.85-6.69-2.56-8.06c-1.71-2.49-2.56-5.1-2.56-7.84c0-0.78,0.2-2.28,0.59-4.5c0.39-2.22,2.15-4.48,5.27-6.78
				c2.49-1.71,5.1-2.56,7.84-2.56c0.78,0,2.27,0.2,4.47,0.59c2.2,0.39,4.47,2.15,6.81,5.27c3.71,5.47,5.57,11.06,5.57,16.77
				c0,7.52-2.27,15.72-6.81,24.61c-2.98,5.71-6.25,11.38-9.81,16.99c-2.93,5.13-4.39,8.86-4.39,11.21c0,2.2,0.95,3.3,2.86,3.3
				c3.37,0,7.67-2.69,12.89-8.06c6.49-6.79,13.04-16.63,19.63-29.52c5.22-10.3,9.69-20.87,13.4-31.71
				c3.22-8.54,8.06-12.82,14.5-12.82c3.76,0,7.03,1.46,9.81,4.39c2.15,2.3,3.37,5.15,3.66,8.57c0.15,1.71,0.22,3.78,0.22,6.23
				c0,15.48-1.76,35.01-5.27,58.59c4.05-3.12,7.96-6.27,11.72-9.45c10.11-8.45,17.94-17.77,23.51-27.98c0.73-1.22,1.73-1.83,3-1.83
				c0.54,0,1.1,0.15,1.68,0.44c1.17,0.68,1.76,1.68,1.76,3c0,0.54-0.12,1.07-0.37,1.61c-3.56,6.54-7.54,12.27-11.94,17.18
				c-4.39,4.91-9.03,9.39-13.92,13.44c-2.88,2.39-8.54,6.91-16.99,13.55c-8.35,49.02-19.41,79.3-33.18,90.82
				C832.24,475.7,828.02,477.63,824.16,477.63z M825.11,470.82c2,0,4.2-1.15,6.59-3.44c3.37-3.17,6.35-8.74,8.94-16.7
				c3.81-12.79,6.42-29.54,7.84-50.24c-4.88,5.27-9.4,11.13-13.55,17.58c2.1-1.32,3.25-1.98,3.44-1.98c0.44,0,0.73,0.19,0.88,0.59
				c2,6.25,3,12.45,3,18.6c-0.25,12.5-4.52,20.65-12.82,24.46c-2.64,1.27-5.71,1.95-9.23,2.05c-0.39,0-0.66-0.15-0.81-0.44
				s-0.25-0.53-0.29-0.7c-0.05-0.17-0.12-0.33-0.22-0.48C819.13,467.26,821.2,470.82,825.11,470.82z M820.72,460.06
				c5.76-0.39,10.33-2.37,13.7-5.93c4.05-4.39,6.08-11.04,6.08-19.92c0-2.15-0.15-4.32-0.44-6.52c-1.32,1.17-2.43,1.94-3.33,2.31
				c-0.9,0.37-1.92,0.55-3.04,0.55c-0.59-0.1-0.88-0.39-0.88-0.88c0-0.59,0.29-0.88,0.88-0.88s1.03-0.03,1.32-0.07
				c1.12-0.2,2.46-1,4.03-2.42c0.15-0.15,0.32-0.22,0.51-0.22l0.29,0.07c-0.73-3.81-1.37-6.47-1.9-7.98
				c-1.76,1.07-3.49,2.2-5.2,3.37c-0.98,1.66-1.95,3.39-2.93,5.2c-0.1,0.78-0.15,1.46-0.15,2.05c0,1.03,0.19,1.81,0.59,2.34
				c0.93-3.12,2.44-6.18,4.54-9.16c0.19-0.25,0.44-0.37,0.73-0.37c0.54,0,0.81,0.22,0.81,0.66c0,0.29-0.05,0.51-0.15,0.66
				c-3.22,4.88-5.3,10.45-6.23,16.7c-0.54,2.83-1.27,5.69-2.2,8.57c-1.17,3.71-3,7.03-5.49,9.96c-0.15,0.19-0.37,0.29-0.66,0.29
				c-0.54,0-0.81-0.25-0.81-0.73c0-0.25,0.05-0.44,0.15-0.59c3.61-4.54,6.05-10.5,7.32-17.87c0.44-2.3,0.98-4.61,1.61-6.96
				c-0.15,0.05-0.39,0.07-0.73,0.07c-0.39-0.15-0.73-0.95-1.03-2.42c-1.46,2.78-2.81,5.66-4.03,8.64c0.73,1.71,1.56,3.03,2.49,3.96
				c0.1,0.19,0.15,0.46,0.15,0.81c0,0.44-0.27,0.66-0.81,0.66c-0.54,0-1.44-1.07-2.71-3.22c-0.88,2.34-1.66,4.69-2.34,7.03
				c0.63,1.42,1.46,2.76,2.49,4.03c0.15,0.19,0.22,0.41,0.22,0.66c-0.1,0.49-0.46,0.73-1.1,0.73c-0.34,0-1.1-1-2.27-3
				c-0.44,1.9-0.78,3.74-1.03,5.49C819.62,457.1,820.13,458.54,820.72,460.06z M830.02,449.88h-0.22c-0.15,0-0.33-0.06-0.55-0.18
				c-0.22-0.12-0.33-0.31-0.33-0.55c0-0.44,0.22-0.76,0.66-0.95c1.07-0.34,2.37-1.2,3.88-2.56c1.51-1.37,2.66-2.74,3.44-4.1
				c0.19-0.29,0.44-0.44,0.73-0.44c0.54,0,0.83,0.27,0.88,0.81c0,0.15-0.05,0.29-0.15,0.44c-0.88,1.56-2.16,3.1-3.84,4.61
				C832.84,448.46,831.34,449.44,830.02,449.88z M831.41,438.67c-0.54,0-0.85-0.27-0.95-0.81c0-0.59,0.27-0.88,0.81-0.88
				c0.98-0.15,2.14-0.72,3.48-1.72s2.38-2.14,3.11-3.41c0.15-0.29,0.39-0.44,0.73-0.44c0.59,0,0.88,0.27,0.88,0.81
				c0,0.15-0.05,0.29-0.15,0.44c-0.83,1.46-1.98,2.76-3.44,3.88C834.22,437.81,832.73,438.52,831.41,438.67z"/>
		</g>
	</g>
	<g>
		<g class="st17">
			<path d="M262.94,236.12h-10.92l-9.9-31.36h-29.39l-10.03,31.36h-10.79l29.26-89.57h12.5L262.94,236.12z M239.13,195.69
				l-11.74-37.07l-11.68,37.07H239.13z"/>
			<path d="M409.32,236.12h-48.75v-89.57h10.41v80.49h38.34V236.12z"/>
			<path d="M470.44,236.12h-9.9v-57.57h-19.49v-8.57h29.39V236.12z M465.62,144.97c1.86,0,3.45,0.67,4.76,2
				c1.31,1.33,1.97,2.93,1.97,4.79c0,1.95-0.65,3.58-1.94,4.89c-1.29,1.31-2.89,1.97-4.79,1.97c-1.74,0-3.27-0.69-4.6-2.06
				c-1.33-1.37-2-2.97-2-4.79c0-1.82,0.67-3.41,2-4.76C462.35,145.65,463.88,144.97,465.62,144.97z"/>
			<path d="M565.59,233.14c-6.64,3.05-13.18,4.57-19.61,4.57c-11.81,0-17.71-6.24-17.71-18.73v-40.43h-12.7v-8.57h12.7v-18.09h9.65
				v18.09h22.47v8.57h-22.47v37.83c0,4.02,0.89,7.14,2.67,9.36c1.78,2.22,4.19,3.33,7.24,3.33c5.42,0,10.77-1.21,16.06-3.62
				L565.59,233.14z"/>
			<path d="M643.61,233.14c-6.64,3.05-13.18,4.57-19.61,4.57c-11.81,0-17.71-6.24-17.71-18.73v-40.43h-12.7v-8.57h12.7v-18.09h9.65
				v18.09h22.47v8.57h-22.47v37.83c0,4.02,0.89,7.14,2.67,9.36c1.78,2.22,4.19,3.33,7.24,3.33c5.42,0,10.77-1.21,16.06-3.62
				L643.61,233.14z"/>
			<path d="M716.16,236.12h-27.04v-81h-17.27v-8.57h27.17v81h17.14V236.12z"/>
			<path d="M800.97,203.37h-45.39c0,7.49,2.17,13.67,6.51,18.54c4.34,4.87,9.66,7.3,15.96,7.3c6.01,0,12.21-1.08,18.6-3.24
				l1.71,7.93c-5.84,2.62-12.65,3.94-20.44,3.94c-9.82,0-17.73-3.15-23.74-9.46c-6.01-6.3-9.01-14.81-9.01-25.52
				c0-10.49,2.7-18.86,8.09-25.11c5.39-6.24,12.37-9.36,20.92-9.36c7.62,0,13.99,2.9,19.11,8.7c5.12,5.8,7.68,13.52,7.68,23.17
				V203.37z M790.17,195.31c0-5.16-1.61-9.51-4.82-13.04c-3.22-3.53-6.81-5.3-10.79-5.3c-5.12,0-9.36,1.69-12.73,5.08
				c-3.36,3.39-5.24,7.81-5.62,13.27H790.17z"/>
		</g>
		<g class="st17">
			<path class="st18" d="M104.99,400.29c-11.47,0-20.43-6.88-26.88-20.65c-4.44-9.91-6.67-22.63-6.67-38.16
				c0-2.98,0.07-6.1,0.22-9.38c1.32-22.31,6.03-43.46,14.14-63.43c6.3-15.28,14.14-27.15,23.51-35.6c5.03-4.35,10.42-7.4,16.19-9.16
				c2.88-0.93,5.64-1.39,8.28-1.39c11.33,0,17.75,6.74,19.26,20.21c0.1,1.03,0.15,2.05,0.15,3.08c0,4.15-0.56,7.72-1.68,10.69
				l1.76-1.03c11.08-6.54,21.9-9.81,32.45-9.81c12.55,0,25.15,4.81,37.79,14.43c4.15,3.08,8.57,6.81,13.26,11.21
				c1.86,1.76,3.27,2.96,4.25,3.59c1.12,0.88,1.68,1.56,1.68,2.05c0,0.68-1.95,2.1-5.86,4.25c-10.3,5.81-20.56,9.99-30.76,12.52
				c-6.64,1.66-12.96,2.49-18.97,2.49c-15.28,0-27.05-5.13-35.3-15.38c-2.88-3.66-5.25-7.84-7.1-12.52
				c-0.34,0.15-0.71,0.22-1.1,0.22c-0.54,0-1.1-0.15-1.68-0.44c-1.22-0.63-1.83-1.64-1.83-3c0-0.54,0.12-1.07,0.37-1.61
				c3.52-6.88,5.27-12.01,5.27-15.38c0-1.03-0.17-1.83-0.51-2.42c-0.73-1.27-1.86-1.9-3.37-1.9c-0.68,0-1.44,0.12-2.27,0.37
				c-5.27,1.66-9.89,4.76-13.84,9.3c-5.27,6.01-10.01,14.26-14.21,24.76c-3.12,8.11-5.67,16.8-7.62,26.07
				c-3.37,15.77-5.05,28.64-5.05,38.6c0,10.35,1.51,20,4.54,28.93c1.46,4.2,3.2,7.67,5.2,10.4c2.59,3.56,5.37,5.35,8.35,5.35
				c3.56,0,7.13-2.52,10.69-7.54c3.91-5.71,7.3-12.92,10.18-21.61c2.83-8.98,5.61-20.65,8.35-35.01c-4.25,1.22-7.91,1.83-10.99,1.83
				c-2.39,0.15-3.66,0.39-3.81,0.73c-0.29,1.95-1.12,3.46-2.49,4.5c-1.37,1.05-2.88,1.57-4.54,1.57c-2.1,0-3.83-0.85-5.2-2.56
				c-1.03-1.27-1.54-2.71-1.54-4.32l0.07-0.81c0.54-3.66,1.98-6.2,4.32-7.62c1.66-1.03,3.56-1.75,5.71-2.16
				c2.15-0.41,4.42-0.74,6.81-0.99c4.2-0.54,6.71-1.37,7.54-2.49c1.95-1.76,4.05-2.64,6.3-2.64c0.98,0,1.9,0.17,2.78,0.51
				c2.44,0.93,3.66,2.69,3.66,5.27v0.73c-0.29,1.76-0.95,10.28-1.98,25.56c-0.34,7.47-0.61,14.94-0.81,22.41
				c0.05,3.81,0.27,7.1,0.66,9.89c1.22,6.93,3.3,10.74,6.23,11.43c0.59,0.15,1.2,0.22,1.83,0.22c2.54,0,5.3-1.22,8.28-3.66
				c5.13-4.35,9.55-9.13,13.26-14.36c8.54-11.47,15.89-23.85,22.05-37.13c-5.62-0.15-9.94-1.07-12.96-2.78
				c-4.15-2.34-6.23-5.44-6.23-9.3c0-4,2.03-8.1,6.08-12.3c2.54-2.64,6.15-5.13,10.84-7.47c2.93-1.42,5.61-2.12,8.06-2.12
				c2.34,0,4.32,0.83,5.93,2.49c1.71,2.05,2.56,4.93,2.56,8.64c0,2.49-0.37,5.01-1.1,7.54c2.93-0.73,5.49-1.44,7.69-2.12
				c2.2-0.68,4.88-1.49,8.06-2.42c7.76-2.49,14.06-3.74,18.9-3.74c1.76,0,3.44,0.15,5.05,0.44c5.03,0.88,8.03,3.71,9.01,8.5
				l0.07,1.25c0,1.42-0.45,2.8-1.36,4.14s-2.31,2.23-4.21,2.67c-0.49,0.1-0.95,0.15-1.39,0.15c-0.73,0-1.46-0.12-2.2-0.37
				c-0.44,1.17-1.46,3.44-3.08,6.81c-12.35,25.88-18.53,43.63-18.53,53.25c0,1.51,0.17,2.78,0.51,3.81
				c0.88,2.59,2.46,3.88,4.76,3.88c1.56,0,3.34-0.49,5.35-1.46c3.96-2.05,7.86-5.23,11.72-9.52c5.32-6.05,10.21-12.82,14.65-20.29
				c5.96-10.21,10.01-18.24,12.16-24.1c0.59-1.51,1.64-2.27,3.15-2.27c0.39,0,0.81,0.07,1.25,0.22c1.51,0.59,2.27,1.64,2.27,3.15
				c0,0.39-0.07,0.81-0.22,1.25c-2.25,6.3-6.47,14.72-12.67,25.27c-4.64,7.81-9.79,14.94-15.45,21.39
				c-4.98,5.57-9.91,9.42-14.79,11.57c-2.49,1.07-4.86,1.61-7.1,1.61c-4.88,0-8.79-2.44-11.72-7.32c-3.52-5.91-5.27-15.6-5.27-29.08
				c0-11.03,1.32-22.8,3.96-35.3c-6.84,1.9-12.16,3.08-15.97,3.52c-1.66,3.76-3.52,7.64-5.57,11.65
				c-11.47,22.22-22.85,37.25-34.13,45.12c-4.59,3.27-8.76,4.91-12.52,4.91c-3.66,0-6.74-1.59-9.23-4.76
				c-3.66-4.54-5.49-12.13-5.49-22.78l0.07-5.35c-4.49,15.19-11.04,26.54-19.63,34.06C118.93,397.43,112.07,400.29,104.99,400.29z
				 M186.95,292.7c9.81,0,20.78-2.34,32.89-7.03c-4.15-2.68-6.76-5.44-7.84-8.28c-0.63-1.46-0.95-2.56-0.95-3.3
				c0-1.12,0.59-1.68,1.76-1.68c0.88,0,1.44,0.49,1.68,1.46c0.54,3.12,3.03,6.15,7.47,9.08c0.54,0.34,0.81,0.83,0.81,1.46
				c5.32-2.29,10.21-4.83,14.65-7.62c-5.47-5.47-10.65-10.01-15.53-13.62c0,1.17-0.56,1.76-1.68,1.76c-6.01,0-10.01,1.07-12.01,3.22
				c6.3,0.29,13.06,1.76,20.29,4.39c0.73,0.34,1.1,0.85,1.1,1.54c0,1.12-0.56,1.71-1.68,1.76l-0.66-0.07
				c-6.64-2.44-12.87-3.81-18.68-4.1c-2.74-0.15-5.45-0.22-8.13-0.22c-3.03,0-6.05,0.11-9.08,0.33c-3.03,0.22-6.15,0.33-9.38,0.33
				c-3.17,0-7.21-0.18-12.12-0.55c-4.91-0.37-11.12-2.21-18.64-5.53c-0.68-0.39-1.03-0.93-1.03-1.61c0-0.24,0.05-0.46,0.15-0.66
				c0.39-0.68,0.9-1.03,1.54-1.03c0.24,0,0.49,0.05,0.73,0.15c7.18,3.17,13.92,4.98,20.21,5.42c3.12,0.2,6.23,0.29,9.3,0.29
				s6.15-0.1,9.23-0.29c3.08-0.19,6.23-0.29,9.45-0.29l4.83,0.07c-0.2-0.34-0.29-0.68-0.29-1.03c0.05-1.37,1.71-2.73,4.98-4.1
				c2.1-0.93,5.2-1.42,9.3-1.46c-11.72-8.25-23.1-12.38-34.13-12.38c-11.77,0-23.85,4.35-36.25,13.04c-0.59,1.12-1.22,2.22-1.9,3.3
				C153.92,283.62,167.13,292.7,186.95,292.7z M162.86,265.74c-0.44,0-0.85-0.15-1.25-0.44c-0.39-0.29-0.59-0.71-0.59-1.25
				c0-0.39,0.1-0.76,0.29-1.1c5.37-7.18,11.89-11.62,19.56-13.33l0.44-0.07c1.12,0,1.68,0.59,1.68,1.76c0,0.83-0.46,1.39-1.39,1.68
				c-6.93,1.56-12.77,5.59-17.5,12.08C163.81,265.43,163.39,265.65,162.86,265.74z M190.76,289.84l-0.44-0.07
				c-3.52-1.03-7.18-2.79-10.99-5.31s-6.47-4.99-7.98-7.43c-0.15-0.29-0.22-0.56-0.22-0.81c0-1.17,0.56-1.76,1.68-1.76
				c0.68,0,1.2,0.29,1.54,0.88c1.17,1.9,3.48,4,6.92,6.3c3.44,2.3,6.75,3.88,9.92,4.76c0.88,0.29,1.32,0.85,1.32,1.68
				C192.37,289.25,191.79,289.84,190.76,289.84z M182.56,267.36c-0.44,0-0.85-0.15-1.25-0.44c-0.39-0.29-0.59-0.71-0.59-1.25
				c0-0.49,0.17-0.9,0.51-1.25c2.15-3.08,4.71-5.65,7.69-7.73c2.98-2.07,6.93-3.16,11.87-3.26c0.49,0,0.89,0.17,1.21,0.51
				c0.32,0.34,0.48,0.76,0.48,1.25c0,0.49-0.16,0.89-0.48,1.21c-0.32,0.32-0.72,0.48-1.21,0.48c-3.96,0.05-7.21,0.9-9.78,2.56
				c-2.56,1.66-4.94,4.03-7.14,7.1C183.53,267.04,183.09,267.31,182.56,267.36z M198.96,316.94c2.73,0,6.35-0.41,10.84-1.25
				c1.61-4.79,2.42-8.18,2.42-10.18c0-2.59-0.88-3.88-2.64-3.88c-2.44,0-6.01,1.71-10.69,5.13c-4.25,3.12-6.42,5.54-6.52,7.25
				C192.37,315.96,194.57,316.94,198.96,316.94z M210.17,286.84l-0.44-0.07c-3.32-0.93-6.45-2.56-9.38-4.91
				c-3.96-3.17-6.1-5.93-6.45-8.28c0-0.24,0.07-0.54,0.22-0.88c0.34-0.54,0.85-0.81,1.54-0.81c0.73,0,1.27,0.39,1.61,1.17
				c0.73,1.86,2.46,3.88,5.2,6.08c2.54,2.05,5.22,3.47,8.06,4.25c0.93,0.29,1.39,0.85,1.39,1.68
				C211.78,286.25,211.2,286.84,210.17,286.84z"/>
			<path class="st18" d="M305.75,394.43c-7.23,0-13.06-2.1-17.5-6.3c-6.93-6.64-10.4-16.21-10.4-28.71c0-5.66,0.83-11.57,2.49-17.72
				c5.66-20.46,14.04-34.47,25.12-42.04c5.71-3.91,11.47-5.86,17.29-5.86c3.52,0,7.06,0.9,10.62,2.71c3.56,1.81,6.18,4.86,7.84,9.16
				c0.68,1.81,1.03,3.69,1.03,5.64c0,3.96-1.37,8.28-4.1,12.96c-3.08,4.69-7.06,8.84-11.94,12.45c-2.69,2.05-5.45,3.78-8.28,5.2
				c-3.56,1.9-6.98,3.44-10.25,4.61l-0.73,1.61c-4.39,10.89-6.59,19.75-6.59,26.59c0,7.28,2.29,11.45,6.88,12.52
				c0.59,0.15,1.22,0.22,1.9,0.22c4.83,0,11.5-2.86,20-8.57c3.96-2.74,6.23-4.39,6.81-4.98c-0.93-4.2-1.39-8.38-1.39-12.52
				c0-10.16,1.93-20.87,5.79-32.15c3.96-10.4,8.52-18.21,13.7-23.44c6.2-6.1,12.21-9.16,18.02-9.16c4.05,0,7.45,1.15,10.18,3.44
				c2.73,2.3,4.54,5.52,5.42,9.67c0.29,1.37,0.44,2.81,0.44,4.32c0,8.79-4.2,18.38-12.6,28.78c-4.54,6.59-9.79,13.11-15.75,19.56
				l-0.07,2.64c0,3.96,0.56,7.28,1.68,9.96c1.42,3.32,3.42,4.98,6.01,4.98c2.49,0,5.35-1.51,8.57-4.54
				c4.35-3.96,8.5-8.89,12.45-14.79c4.83-7.18,8.86-13.99,12.08-20.43c2.29-4.35,3.54-7.69,3.74-10.03c0-10.01,0.59-17.5,1.76-22.49
				c1.12-3.76,3.3-6.54,6.52-8.35c2.1-1.17,4.32-1.76,6.67-1.76c1.22,0,2.49,0.17,3.81,0.51c3.71,1.17,6.47,3.34,8.28,6.52
				c1.17,2.05,1.76,4.25,1.76,6.59c0,1.27-0.18,2.56-0.55,3.88c-0.37,1.32-0.94,3.3-1.72,5.93c-4.98,15.63-8.45,28.3-10.4,38.01
				c3.17-12.01,7.03-22.05,11.57-30.1c7.76-13.67,15.99-21.65,24.68-23.95c8.06-14.11,17.31-23.85,27.76-29.22
				c7.57-3.96,16.09-5.93,25.56-5.93c8.15,0,17.31,1.46,27.47,4.39c8.94,2.49,13.4,4.37,13.4,5.64c0,0.59-1.59,3.1-4.76,7.54
				c-3.61,5.03-7.84,9.96-12.67,14.79c-6.3,6.3-12.92,11.43-19.85,15.38c-8.69,4.98-17.31,7.47-25.85,7.47
				c-2.78-0.05-5.62-0.39-8.5-1.03l0.07,3.22c0,8.11-1.98,16.99-5.93,26.66c-2.49,5.61-4.42,11.89-5.79,18.82L467.4,374
				c0,1.12,0.32,1.68,0.95,1.68c0.59,0,1.32-0.29,2.2-0.88c5.71-4.05,13.6-13.6,23.66-28.64l8.06-12.01
				c0.73-0.98,1.71-1.46,2.93-1.46c0.63,0,1.25,0.2,1.83,0.59c1.03,0.73,1.54,1.68,1.54,2.86c0,0.68-0.2,1.32-0.59,1.9
				c-4.69,6.93-7.28,10.89-7.76,11.87c-4.15,6.49-8.42,12.7-12.82,18.6c-3.42,4.69-7.64,8.84-12.67,12.45
				c-3.91,2.73-8.13,4.1-12.67,4.1c-6.3,0-10.74-3.34-13.33-10.03c-1.22-3.71-1.83-7.72-1.83-12.01c0-6.35,0.81-12.35,2.42-18.02
				l1.03-3.44c2.39-8.01,3.59-14.4,3.59-19.19l-0.07-1.83c-0.15-3.22-0.95-4.83-2.42-4.83c-2.78,0-7.28,5.54-13.48,16.63
				c-5.47,9.62-9.81,22.05-13.04,37.28c-1.07,5.37-1.76,9.62-2.05,12.74l-0.51,3.59c-0.59,3.47-1.83,5.2-3.74,5.2
				c-1.37,0-2.81-1.1-4.32-3.3c-1.86-2.93-3.2-6.25-4.03-9.96c-2.49-8.59-4.25-19.21-5.27-31.86c-3.42,6.59-7.1,12.87-11.06,18.82
				c-3.71,5.52-8.13,10.59-13.26,15.23c-4.64,4.25-9.77,7.5-15.38,9.74c-3.27,1.27-6.49,1.9-9.67,1.9c-0.54,0-1.87-0.07-3.99-0.22
				c-2.12-0.15-4.75-1.51-7.87-4.1c-2.2-2-3.96-4.27-5.27-6.81c-1.61,1.22-3.22,2.37-4.83,3.44
				C323.21,390.87,313.91,394.33,305.75,394.43z M311.83,337.3c9.23-4.39,15.89-9.77,20-16.11c1.27-2.2,1.9-3.93,1.9-5.2
				c0-1.51-0.66-2.27-1.98-2.27c-3.47,0-8.2,4.47-14.21,13.4C315.74,329.95,313.83,333.35,311.83,337.3z M362.07,349.24
				c2.78-3.42,5.37-6.86,7.76-10.33c7.47-10.89,11.21-17.99,11.21-21.31c0-0.68-0.2-1.05-0.59-1.1c-0.78,0-2.15,1.27-4.1,3.81
				C369.76,329.59,365,339.23,362.07,349.24z M464.76,304.49c7.13-0.29,13.43-1.46,18.9-3.52c6.15-2.29,11.94-5,17.36-8.13
				c4.15-2.25,8.45-4.37,12.89-6.37c-0.63-0.34-0.95-0.85-0.95-1.54c0-0.24,0.05-0.46,0.15-0.66c0.93-3.42,4.47-6.67,10.62-9.74
				c-5.08-0.88-9.64-1.32-13.7-1.32c-9.03,0-17.07,1.88-24.1,5.64c-9.38,4.83-17.7,13.33-24.98,25.49l1.32-0.07
				C463.15,304.27,463.98,304.34,464.76,304.49z M473.48,302.95l-0.44-0.07c-0.93-0.19-1.39-0.73-1.39-1.61l0.07-0.44
				c1.81-8.79,5.79-15.6,11.94-20.43c0.34-0.24,0.68-0.37,1.03-0.37c1.12,0,1.68,0.59,1.68,1.76c0,0.54-0.22,0.98-0.66,1.32
				c-5.57,4.44-9.11,10.6-10.62,18.46C474.89,302.49,474.35,302.95,473.48,302.95z M487.76,321.63c4.3,0,8.57-0.71,12.82-2.12
				c7.57-2.44,15.09-6.69,22.56-12.74c3.37-2.78,7.08-6.27,11.13-10.47c-3.47-0.49-6.08-1.22-7.84-2.2
				c-1.95-1.03-3.56-2.39-4.83-4.1c-0.25-0.34-0.37-0.68-0.37-1.03c0-0.59,0.19-1.03,0.59-1.32c0.39-0.29,0.76-0.44,1.1-0.44
				c0.54,0,1,0.2,1.39,0.59c0.59,0.73,1.17,1.34,1.76,1.83c1.9,1.66,4.88,2.76,8.94,3.3c0.63,0.1,1.1,0.44,1.39,1.03
				c4.25-5.03,7.59-9.42,10.03-13.18c-7.28-2.59-13.89-4.47-19.85-5.64c0.1,0.25,0.15,0.46,0.15,0.66c0,0.78-0.34,1.32-1.03,1.61
				c-5.57,2.74-8.69,5.42-9.38,8.06c6.45-2.54,13.16-4.1,20.14-4.69c0.49,0,0.92,0.16,1.28,0.48c0.37,0.32,0.55,0.77,0.55,1.35
				c0,0.98-0.51,1.51-1.54,1.61c-7.86,0.63-15.19,2.52-21.97,5.64c-4.2,1.9-8.25,3.93-12.16,6.08
				c-10.99,6.3-21.27,10.11-30.83,11.43c0.68,0.54,1.32,1.12,1.9,1.76c2.64,3.22,4.3,6.98,4.98,11.28
				C481.75,321.21,484.78,321.63,487.76,321.63z M503.87,313.06c-2.1,0-4.32-0.17-6.67-0.51c-4.59-0.63-8.08-1.73-10.47-3.3
				c-0.44-0.34-0.66-0.83-0.66-1.46c0-0.34,0.1-0.66,0.29-0.95c0.39-0.49,0.83-0.73,1.32-0.73c0.34,0,0.71,0.12,1.1,0.37
				c1.9,1.22,4.88,2.12,8.94,2.71c2.15,0.29,4.17,0.44,6.08,0.44c1.71,0,3.44-0.12,5.2-0.37c1.17,0,1.76,0.59,1.76,1.76
				c0,0.29-0.12,0.61-0.37,0.95C509.95,312.69,507.78,313.06,503.87,313.06z M491.93,295.99l-0.37-0.07
				c-0.93-0.19-1.39-0.81-1.39-1.83c1.12-8.79,5.49-15.04,13.11-18.75c0.24-0.1,0.49-0.15,0.73-0.15c1.12,0,1.68,0.59,1.68,1.76
				c0,0.68-0.34,1.17-1.03,1.46c-3.27,1.61-5.67,3.59-7.18,5.93c-1.86,2.64-3.15,6.01-3.88,10.11
				C493.37,295.48,492.81,295.99,491.93,295.99z M521.45,302c-2.1,0-4.22-0.27-6.37-0.81c-4.1-0.98-7.13-2.39-9.08-4.25
				c-0.29-0.29-0.44-0.63-0.44-1.03c0-0.59,0.17-1.05,0.51-1.39c0.34-0.34,0.73-0.51,1.17-0.51c0.49,0,0.9,0.17,1.25,0.51
				c1.46,1.37,3.91,2.47,7.32,3.3c1.95,0.49,3.86,0.73,5.71,0.73c1.17,0,2.42-0.1,3.74-0.29c1.17,0,1.76,0.59,1.76,1.76
				c0,0.29-0.12,0.61-0.37,0.95C526.26,301.66,524.53,302,521.45,302z"/>
			<path class="st18" d="M515.88,393.7c-1.07,0-1.92-0.34-2.53-1.03c-0.61-0.68-0.92-1.51-0.92-2.49
				c-3.37-32.57-10.5-58.89-21.39-78.96c-0.83-1.95-1.25-3.88-1.25-5.79c0-5.71,2.69-9.86,8.06-12.45c1.95-0.88,3.91-1.32,5.86-1.32
				c5.66,0,9.79,2.69,12.38,8.06c3.52,8.2,5.27,21.53,5.27,39.99v3.22c3.66-12.35,8.62-23.24,14.87-32.67
				c3.12-4.69,6.81-8.57,11.06-11.65c3.71-2.78,7.74-4.17,12.08-4.17c3.37,0,6.32,1.15,8.86,3.44c4,3.71,6.01,9.86,6.01,18.46
				c-0.05,6.45-0.83,12.43-2.34,17.94c-1.42,5.27-2.98,10.45-4.69,15.53c-4.15,12.26-6.23,20.34-6.23,24.24
				c0,1.9,0.49,2.86,1.46,2.86c1.66,0,4.83-2.81,9.52-8.42c3.91-4.79,8.28-11.23,13.11-19.34c2.05-3.47,4.88-8.4,8.5-14.79
				c0.73-1.17,1.73-1.76,3-1.76c0.59,0,1.15,0.17,1.68,0.51c1.17,0.68,1.76,1.68,1.76,3c0,0.54-0.15,1.1-0.44,1.68
				c-0.44,0.73-0.85,1.49-1.25,2.27c-7.91,14.26-14.92,25.2-21.02,32.81c-6.74,8.06-12.79,12.08-18.16,12.08
				c-0.93,0-1.81-0.12-2.64-0.37c-7.76-2.39-11.65-11.01-11.65-25.85c0-8.2,0.88-16.72,2.64-25.56c1.56-9.62,2.34-15.84,2.34-18.68
				c0-3.52-0.68-5.27-2.05-5.27c-1.46,0-3.54,1.83-6.23,5.49c-8.45,11.67-14.82,29.4-19.12,53.17c-1.42,7.96-2.47,15.48-3.15,22.56
				c-0.1,0.98-0.48,1.76-1.13,2.34C517.53,393.41,516.76,393.7,515.88,393.7z"/>
			<path class="st18" d="M612.34,391.72c-1.07,0-2.1-0.05-3.08-0.15c-6.69-0.73-11.72-3.32-15.09-7.76
				c-4.35-5.52-6.52-13.21-6.52-23.07l0.07-2.34c0.88-13.87,4.39-26.15,10.55-36.84c4.1-7.03,8.96-13.04,14.58-18.02
				c5.61-4.98,11.77-8.08,18.46-9.3c1.27-0.15,2.49-0.22,3.66-0.22c5.61,0,10.42,2,14.43,6.01c4,4,6.08,9.35,6.23,16.04
				c0,8.25-3.54,15.31-10.62,21.17c-4.1,3.52-9.72,6.01-16.85,7.47c-3.32,0.68-7.01,1.03-11.06,1.03
				c-2.25,6.59-3.37,12.92-3.37,18.97c0,3.86,0.39,6.96,1.17,9.3c0.24-5.27,1.17-9.84,2.78-13.7c4.39-9.96,13.96-16.01,28.71-18.16
				c0.63-0.1,1.25-0.19,1.83-0.29c0.59-0.1,1-0.15,1.25-0.15c0.54,0.1,0.81,0.39,0.81,0.88c-0.34,4.83-1.2,9.28-2.56,13.33
				c-1.32,4.35-3.03,8.13-5.13,11.35c-4.79,7.62-10.96,11.43-18.53,11.43c-2.3,0-4.81-0.42-7.54-1.25c1.71,2.29,4.13,3.44,7.25,3.44
				c2.83,0,6.08-0.88,9.74-2.64c6.69-3.32,13.65-8.16,20.87-14.5c8.3-7.37,15.19-14.43,20.65-21.17c2.88-3.47,4.91-6.3,6.08-8.5
				c0.73-1.22,1.73-1.83,3-1.83c0.54,0,1.1,0.15,1.68,0.44c1.17,0.68,1.76,1.71,1.76,3.08c0,0.54-0.12,1.07-0.37,1.61
				c-1.71,3.08-3.98,6.4-6.81,9.96c-6.1,7.67-13.65,15.21-22.63,22.63C640.22,384.47,625.09,391.72,612.34,391.72z M624.65,377
				c4.88-0.2,9.16-2.17,12.82-5.93c4.35-4.49,7.45-10.47,9.3-17.94c-1.66,0.59-3,0.88-4.03,0.88s-2-0.22-2.93-0.66
				c-0.34-0.19-0.51-0.46-0.51-0.81c0-0.39,0.11-0.63,0.33-0.73c0.22-0.1,0.45-0.15,0.7-0.15c0.83,0.39,1.54,0.59,2.12,0.59
				c1.32,0,2.66-0.27,4.03-0.81c0.29,0,0.51,0.05,0.66,0.15c0.49-1.46,0.95-4.15,1.39-8.06c-3.37,0.44-6.71,1.15-10.03,2.12
				c0.19,0.15,0.32,0.34,0.37,0.59c0,0.25-0.07,0.46-0.22,0.66c-1.51,2-2.27,3.74-2.27,5.2l0.07,0.44c2.29-2.68,4.86-4.91,7.69-6.67
				c0.15-0.1,0.32-0.15,0.51-0.15c0.54,0,0.81,0.29,0.81,0.88c0,0.25-0.12,0.46-0.37,0.66c-4.69,3.03-8.76,7.37-12.23,13.04
				c-3.47,5.47-7.13,9.57-10.99,12.3c-2.1,1.37-3.3,2.05-3.59,2.05c-0.54,0-0.81-0.29-0.81-0.88c0-0.34,0.15-0.59,0.44-0.73
				c5.08-2.93,9.59-7.5,13.55-13.7c1.27-1.95,2.66-3.88,4.17-5.79c-0.63,0-0.95-0.46-0.95-1.39c0-1.76,0.81-3.78,2.42-6.08
				c-6.98,2.25-12.16,5.79-15.53,10.62c-3.12,4.54-4.81,10.84-5.05,18.9c2.64,0.93,5.15,1.39,7.54,1.39H624.65z M621.57,370.19
				h-0.22c-0.44,0-0.73-0.2-0.88-0.59c-0.54-1.81-0.81-3.61-0.81-5.42c0-2.25,0.44-4.35,1.32-6.3c0.15-0.29,0.37-0.44,0.66-0.44
				c0.63,0,0.95,0.29,0.95,0.88l-0.07,0.29c-0.73,1.71-1.12,3.44-1.17,5.2c0,1.76,0.27,3.56,0.81,5.42
				C622.16,369.77,621.96,370.09,621.57,370.19z M619.89,338.77c9.18-0.54,16.11-2.83,20.8-6.88c5.27-4.44,7.91-8.4,7.91-11.87
				c0-0.54-0.07-1.05-0.22-1.54c-0.68-1.86-2.25-2.78-4.69-2.78c-1.46,0-3.15,0.42-5.05,1.25
				C631.21,320.65,624.96,327.93,619.89,338.77z M628.02,362.86h-0.22c-0.44,0-0.71-0.2-0.81-0.59c-0.54-1.07-0.81-2.76-0.81-5.05
				c0-2,0.73-4.03,2.2-6.08c0.15-0.19,0.39-0.29,0.73-0.29c0.44,0,0.71,0.22,0.81,0.66c0,0.25-0.07,0.46-0.22,0.66
				c-1.22,1.66-1.83,3.49-1.83,5.49c0,0.73,0.24,2.2,0.73,4.39C628.6,362.5,628.41,362.76,628.02,362.86z M629.55,369.82
				c-0.83,0-1.25-0.27-1.25-0.81c0-0.59,0.27-0.88,0.81-0.88h0.59c1.07,0,2.44-0.29,4.1-0.88c1.9-0.73,3.49-1.59,4.76-2.56
				c0.15-0.1,0.32-0.15,0.51-0.15c0.59,0,0.88,0.24,0.88,0.73c0,0.34-0.1,0.59-0.29,0.73c-1.42,1.12-3.2,2.08-5.35,2.86
				C632.41,369.5,630.82,369.82,629.55,369.82z M636.22,360.23c-1.46,0-2.2-0.37-2.2-1.1c0-0.34,0.11-0.56,0.33-0.66
				c0.22-0.1,0.43-0.15,0.62-0.15c0.49,0.1,0.98,0.15,1.46,0.15c2.39,0,4.64-0.78,6.74-2.34c0.15-0.1,0.29-0.15,0.44-0.15
				c0.34,0,0.59,0.1,0.73,0.29c0.15,0.19,0.22,0.39,0.22,0.59c-0.05,0.24-0.17,0.44-0.37,0.59c-1.32,1.07-2.88,1.83-4.69,2.27
				C638.29,360.05,637.2,360.23,636.22,360.23z"/>
			<path class="st18" d="M737.88,387.84c-2.88,0-5.9-0.67-9.04-2.01c-3.15-1.34-6.02-4.19-8.61-8.53
				c-3.17-5.57-4.76-12.3-4.76-20.21c0-9.03,1.86-18.33,5.57-27.91c-5.23,2.74-9.38,4.74-12.45,6.01
				c-4.54,1.95-9.13,2.93-13.77,2.93c-3.03,0-6.23-0.54-9.59-1.61c-2.88-0.98-5.27-2.34-7.18-4.1c-4.2-3.86-6.3-8.74-6.3-14.65
				c0-3.56,1.05-6.96,3.15-10.18c1.56-2.49,3.52-4.47,5.86-5.93c2.2-1.17,4.27-1.76,6.23-1.76c1.76,0,3.42,0.46,4.98,1.39
				c3.08,1.86,4.61,5.05,4.61,9.59c0,5.23-2.3,11.69-6.88,19.41c2,0.49,3.98,0.73,5.93,0.73c3.71-0.15,7.28-0.95,10.69-2.42
				c3.91-1.76,7.91-3.93,12.01-6.52c3.52-2.1,6.3-3.88,8.35-5.35c4.25-2.93,8.18-4.39,11.79-4.39c3.32,0,6.14,0.95,8.46,2.86
				s3.82,4.39,4.5,7.47c0.19,0.88,0.29,1.73,0.29,2.56c0,2.2-0.59,4.44-1.76,6.74c-3.37,6.4-6.47,13.6-9.3,21.61
				c-2.69,7.57-4.03,13.99-4.03,19.26v0.59c0.39,4.3,1.88,6.67,4.47,7.1c0.63,0.15,1.29,0.22,1.98,0.22c1.46,0,3.03-0.32,4.69-0.95
				c4.25-1.56,8.59-4.05,13.04-7.47c9.77-7.52,19.38-16.94,28.86-28.27c3.03-3.61,5.44-7.01,7.25-10.18
				c0.68-1.17,1.71-1.76,3.08-1.76c0.54,0,1.07,0.15,1.61,0.44c1.22,0.73,1.83,1.73,1.83,3c0,0.54-0.15,1.07-0.44,1.61
				c-2.2,3.91-4.83,7.79-7.91,11.65c-9.28,11.43-19.38,20.97-30.32,28.64c-4.88,3.42-9.91,6.1-15.09,8.06
				C745.52,387.06,741.59,387.84,737.88,387.84z M683.83,326.61c3.66-6.3,5.49-10.69,5.49-13.18c0-0.15-0.05-0.57-0.15-1.28
				c-0.1-0.71-0.68-1.06-1.76-1.06c-1.42,0-2.64,0.59-3.66,1.76c-1.51,1.76-2.27,4.08-2.27,6.96
				C681.48,322.24,682.26,324.51,683.83,326.61z"/>
			<path class="st18" d="M824.16,477.63c-4.3,0-7.54-2-9.74-6.01c-1.61-2.83-2.42-6.64-2.42-11.43c0-6.88,1.78-14.65,5.35-23.29
				c7.86-18.8,18.46-34.47,31.79-47.02c0.68-11.96,1.03-25,1.03-39.11c0-10.84-0.15-20.24-0.44-28.2
				c-2.74,6.69-5.59,12.94-8.57,18.75c-6.88,13.38-13.77,23.66-20.65,30.83c-6.54,6.74-12.5,10.11-17.87,10.11
				c-5.42,0-9.08-3.34-10.99-10.03c-0.73-2.49-1.1-5.37-1.1-8.64c0-2.25,0.17-4.66,0.51-7.25c0.59-4.2,1.61-10.13,3.08-17.8
				c0.88-4.64,1.32-8.69,1.32-12.16c0-4-0.85-6.69-2.56-8.06c-1.71-2.49-2.56-5.1-2.56-7.84c0-0.78,0.2-2.28,0.59-4.5
				c0.39-2.22,2.15-4.48,5.27-6.78c2.49-1.71,5.1-2.56,7.84-2.56c0.78,0,2.27,0.2,4.47,0.59c2.2,0.39,4.47,2.15,6.81,5.27
				c3.71,5.47,5.57,11.06,5.57,16.77c0,7.52-2.27,15.72-6.81,24.61c-2.98,5.71-6.25,11.38-9.81,16.99
				c-2.93,5.13-4.39,8.86-4.39,11.21c0,2.2,0.95,3.3,2.86,3.3c3.37,0,7.67-2.69,12.89-8.06c6.49-6.79,13.04-16.63,19.63-29.52
				c5.22-10.3,9.69-20.87,13.4-31.71c3.22-8.54,8.06-12.82,14.5-12.82c3.76,0,7.03,1.46,9.81,4.39c2.15,2.3,3.37,5.15,3.66,8.57
				c0.15,1.71,0.22,3.78,0.22,6.23c0,15.48-1.76,35.01-5.27,58.59c4.05-3.12,7.96-6.27,11.72-9.45
				c10.11-8.45,17.94-17.77,23.51-27.98c0.73-1.22,1.73-1.83,3-1.83c0.54,0,1.1,0.15,1.68,0.44c1.17,0.68,1.76,1.68,1.76,3
				c0,0.54-0.12,1.07-0.37,1.61c-3.56,6.54-7.54,12.27-11.94,17.18c-4.39,4.91-9.03,9.39-13.92,13.44
				c-2.88,2.39-8.54,6.91-16.99,13.55c-8.35,49.02-19.41,79.3-33.18,90.82C832.24,475.7,828.02,477.63,824.16,477.63z
				 M825.11,470.82c2,0,4.2-1.15,6.59-3.44c3.37-3.17,6.35-8.74,8.94-16.7c3.81-12.79,6.42-29.54,7.84-50.24
				c-4.88,5.27-9.4,11.13-13.55,17.58c2.1-1.32,3.25-1.98,3.44-1.98c0.44,0,0.73,0.19,0.88,0.59c2,6.25,3,12.45,3,18.6
				c-0.25,12.5-4.52,20.65-12.82,24.46c-2.64,1.27-5.71,1.95-9.23,2.05c-0.39,0-0.66-0.15-0.81-0.44s-0.25-0.53-0.29-0.7
				c-0.05-0.17-0.12-0.33-0.22-0.48C819.13,467.26,821.2,470.82,825.11,470.82z M820.72,460.06c5.76-0.39,10.33-2.37,13.7-5.93
				c4.05-4.39,6.08-11.04,6.08-19.92c0-2.15-0.15-4.32-0.44-6.52c-1.32,1.17-2.43,1.94-3.33,2.31c-0.9,0.37-1.92,0.55-3.04,0.55
				c-0.59-0.1-0.88-0.39-0.88-0.88c0-0.59,0.29-0.88,0.88-0.88s1.03-0.03,1.32-0.07c1.12-0.2,2.46-1,4.03-2.42
				c0.15-0.15,0.32-0.22,0.51-0.22l0.29,0.07c-0.73-3.81-1.37-6.47-1.9-7.98c-1.76,1.07-3.49,2.2-5.2,3.37
				c-0.98,1.66-1.95,3.39-2.93,5.2c-0.1,0.78-0.15,1.46-0.15,2.05c0,1.03,0.19,1.81,0.59,2.34c0.93-3.12,2.44-6.18,4.54-9.16
				c0.19-0.25,0.44-0.37,0.73-0.37c0.54,0,0.81,0.22,0.81,0.66c0,0.29-0.05,0.51-0.15,0.66c-3.22,4.88-5.3,10.45-6.23,16.7
				c-0.54,2.83-1.27,5.69-2.2,8.57c-1.17,3.71-3,7.03-5.49,9.96c-0.15,0.19-0.37,0.29-0.66,0.29c-0.54,0-0.81-0.25-0.81-0.73
				c0-0.25,0.05-0.44,0.15-0.59c3.61-4.54,6.05-10.5,7.32-17.87c0.44-2.3,0.98-4.61,1.61-6.96c-0.15,0.05-0.39,0.07-0.73,0.07
				c-0.39-0.15-0.73-0.95-1.03-2.42c-1.46,2.78-2.81,5.66-4.03,8.64c0.73,1.71,1.56,3.03,2.49,3.96c0.1,0.19,0.15,0.46,0.15,0.81
				c0,0.44-0.27,0.66-0.81,0.66c-0.54,0-1.44-1.07-2.71-3.22c-0.88,2.34-1.66,4.69-2.34,7.03c0.63,1.42,1.46,2.76,2.49,4.03
				c0.15,0.19,0.22,0.41,0.22,0.66c-0.1,0.49-0.46,0.73-1.1,0.73c-0.34,0-1.1-1-2.27-3c-0.44,1.9-0.78,3.74-1.03,5.49
				C819.62,457.1,820.13,458.54,820.72,460.06z M830.02,449.88h-0.22c-0.15,0-0.33-0.06-0.55-0.18c-0.22-0.12-0.33-0.31-0.33-0.55
				c0-0.44,0.22-0.76,0.66-0.95c1.07-0.34,2.37-1.2,3.88-2.56c1.51-1.37,2.66-2.74,3.44-4.1c0.19-0.29,0.44-0.44,0.73-0.44
				c0.54,0,0.83,0.27,0.88,0.81c0,0.15-0.05,0.29-0.15,0.44c-0.88,1.56-2.16,3.1-3.84,4.61
				C832.84,448.46,831.34,449.44,830.02,449.88z M831.41,438.67c-0.54,0-0.85-0.27-0.95-0.81c0-0.59,0.27-0.88,0.81-0.88
				c0.98-0.15,2.14-0.72,3.48-1.72s2.38-2.14,3.11-3.41c0.15-0.29,0.39-0.44,0.73-0.44c0.59,0,0.88,0.27,0.88,0.81
				c0,0.15-0.05,0.29-0.15,0.44c-0.83,1.46-1.98,2.76-3.44,3.88C834.22,437.81,832.73,438.52,831.41,438.67z"/>
		</g>
	</g>
</g>
</svg>
